<svg xmlns="http://www.w3.org/2000/svg" viewBox="0 0 349.29 233.23">
  <title>Asset 3</title>
  <g id="Layer_2" data-name="Layer 2">
    <g id="Layer_1-2" data-name="Layer 1">
      <g>
        <g>
          <path d="M124.58,168.63c-1.54.36-3-.11-3.2-1L88.25,26.23c-.22-.95.85-2,2.4-2.37s3,.11,3.2,1.06L127,166.27C127.2,167.21,126.13,168.27,124.58,168.63Z" style="fill: #184655"/>
          <path d="M115.9,195.18c1.39-.33,2.72-.72,4.08-.93a5.09,5.09,0,0,0,3.17-1.59,9.77,9.77,0,0,0,2.52-7.85,17.66,17.66,0,0,0-.65-2.65q-2.23-8.78-4.49-17.54c-.12-.46-.25-.92-.35-1.39a1.06,1.06,0,0,1,.06-.54c.29.62.79.57,1.27.46,1.2-.26,2.39-.54,3.58-.86.39-.1.91-.23.76-.84.06,0,.22.17.25.31q1.45,6.78,2.9,13.57c.28,1.32.57,2.64.85,4a35.5,35.5,0,0,0,.89,4.12,9.59,9.59,0,0,0,5.89,6.14,4.93,4.93,0,0,0,3.64-.1,24.79,24.79,0,0,1,3.64-.89c.11,0,.31.13.37.25a4.3,4.3,0,0,1,.22.8q2.15,9.07,4.26,18.15a11.27,11.27,0,0,1-.28,5.82,25.69,25.69,0,0,1-4.72,8.55c-.85,1.09-1.76,2.16-2.71,3.16A5.32,5.32,0,0,1,135,226.7a34.49,34.49,0,0,1-9.71-5.21,14,14,0,0,1-4.46-5.49,8.82,8.82,0,0,1-.46-1.34q-2.18-9.25-4.33-18.5A8.26,8.26,0,0,1,115.9,195.18ZM124.6,166a.62.62,0,0,0-.81-.51.61.61,0,0,0-.49.8.63.63,0,0,0,.81.49A.62.62,0,0,0,124.6,166Z" style="fill: #f8c48b"/>
          <path d="M144.5,189.61a4.3,4.3,0,0,0-.22-.8c-.06-.12-.26-.28-.37-.25a24.79,24.79,0,0,0-3.64.89,4.93,4.93,0,0,1-3.64.1,9.59,9.59,0,0,1-5.89-6.14,35.5,35.5,0,0,1-.89-4.12c-.28-1.32-.57-2.64-.85-4q-1.45-6.78-2.9-13.57c0-.14-.19-.31-.25-.31.15.61-.37.74-.76.84-.63.17-1.25.32-1.88.47l.64,2.75a.66.66,0,0,1,.3,1.28L138.26,227a5.71,5.71,0,0,0,2.79-1.68c.95-1,1.86-2.07,2.71-3.16a25.69,25.69,0,0,0,4.72-8.55,11.27,11.27,0,0,0,.28-5.82Q146.64,198.69,144.5,189.61Z" style="fill: #ee944c"/>
        </g>
        <path d="M57.15,220.21a100.18,100.18,0,0,1-.51-13l-9.37,2.1a55.81,55.81,0,0,1,.78,11.34l-.26,2.38v7.06H70.85a104.46,104.46,0,0,1-11.74-6.53A4.69,4.69,0,0,1,57.15,220.21Z" style="fill: #f7a491"/>
        <path d="M21.57,217.85l3.06-8.78h-8c-.42,5.64-.58,9.44-.58,9.44l-2,5.78-2.07,6.86s6.83,1.76,10.41-.22l-.4-6.83Z" style="fill: #f7a491"/>
        <path d="M48.06,96.94,35.35,174.82,21.7,220.1l-6-.72s-.42-21.55,2.85-35.25a113.93,113.93,0,0,0,2.9-22.89c.43-13.79,1.46-33.26,4-43.29,3.48-14,7.41-21.35,7.41-21.35Z" style="fill: #355389"/>
        <path d="M35.55,114.51c-1.39,16.65,12.51,104.15,12.51,104.15H57s7.32-91.48,5.83-100.38-5.94-23.41-5.94-23.41l-20,1.56S35.92,110,35.55,114.51Z" style="fill: #466eb6"/>
        <path d="M46.84,43.12c-13.78-5.56-20.76-3.72-23.15-2.51l.12,21c.39,1.76-1.17,53.05-1.66,59.05,0,0,36.23,3.65,42.69-3.83,0,0-8-29.47-7-37.06C59.38,67.86,48,43.6,46.84,43.12Z" style="fill: #f47458"/>
        <path d="M59.19,57.87s6,7.19,6.87,7.88c0,0,17-8.19,24.07-12.34l.23-.19c.13-.1.33-.18.32-.39-.05-.95.07-4.23.17-5.64a2.86,2.86,0,0,1,.33-1.1l1.21-2.16.39,1.68a1,1,0,0,0,1.18.75h0a4.58,4.58,0,0,0,1.48-.67A5.7,5.7,0,0,1,97.59,45a1.39,1.39,0,0,1,1.52,1.07,4.82,4.82,0,0,0,.44,1.36c.46.63,2.4,7,1.45,7.84a18.65,18.65,0,0,1-4.49,2,6.22,6.22,0,0,0-2.26,1.12,4.15,4.15,0,0,1-.43.3h0c-4.9,3.46-21.17,15.38-21.17,15.38S64.54,79.3,63,78.48,50.12,64.27,50.12,64.27Z" style="fill: #f7a491"/>
        <path d="M38.26,27.52s.33,7.74-.37,10.68-1.62,3.15,4.35,4c2.34.36,4.6.88,4.6.88s-.61-4.31-.7-6.13c-.16-3,.69-12.25.69-12.25Z" style="fill: #f7a491"/>
        <path d="M39.23,51.64C39.17,59,51.76,72.29,51.76,72.29s11.36-9,13-12.14c0,0-12.19-12.94-13-13.72a8,8,0,0,0-9.25-1.9C40.75,45.17,39.23,51.64,39.23,51.64Z" style="fill: #b75742"/>
        <path d="M34.08,54.63c6.9-6,9.5-19.29,5-27.19,3.13-4.07,5.13-3.34,4.43-8.4C42.14,9.07,56,3.06,45.65.41c-10.48-2.11-19.2,4.33-24,10.73a25.43,25.43,0,0,1-8,7.12C7.29,21.73,4,30.06,7.31,38.75c-5.07,2.84-9.5,11.06-6.14,17.89.81,1.64,2.43,3.56,2.48,4-.09-.58-4.72,14.65,12.56,19.83C33.83,85.8,37.46,68.87,34.08,54.63Z" style="fill: #184655"/>
        <path d="M29,10.89c-2,8.41,9,14.52,17.75,14.75,5.69.14,8.3-.44,9.22-6.43C57.5,9.49,53.5,3.57,47.89,1.12,40.65-2,30.73,3.94,29,10.89Z" style="fill: #184655"/>
        <path d="M41.89,5.22A11.52,11.52,0,0,0,36,10.4c-2.05,3.88-1,16.32,7.5,20.42S55.94,25.6,55.32,18.73,52.23,2.87,41.89,5.22Z" style="fill: #f7a491"/>
        <path d="M47.21,24.36l6.06-.09a2.68,2.68,0,0,1-2.77,2.46C47.26,26.88,47.21,24.36,47.21,24.36Z" style="fill: #fff"/>
        <path d="M33,19.81c-1.26-6.43-.77-11.3,3.8-13.65s8.47-4.68,12.55-.45l.92.52s-7.7,2.13-8.13,6.22-4.53,9-3.9,11,1.36,6,1.36,6l-1.69-1.38S34.22,26.23,33,19.81Z" style="fill: #184655"/>
        <path d="M40.91,17.35c.63,1.77.15,3.55-1.08,4s-2.74-.67-3.38-2.45-.15-3.55,1.08-4S40.27,15.57,40.91,17.35Z" style="fill: #f7a491"/>
        <g>
          <path d="M182.94,118.51s-6.86,15.15-14.24,22.93v2.33l11.09-16.18Z" style="fill: #184655"/>
          <path d="M190.18,92c.06-7.75-1.69-10.67-1.72-10.21-.06,1.08.09,3.13.17,5.86,0,.34-.08,17.33-5.17,29.67a1.54,1.54,0,0,0-.08.19l-.16.36-.3.7c-.23.49-.4.9-.55,1.24-5.59,12.73-7.43,14.43-13.67,21.65,0-19.92-1.37-42.43-7.19-61.92-.95-3.19-2.24-6.19-3.48-9.28a.6.6,0,0,0-1.11.43c.3,1,8.16,28.94,7.79,66.11,0,.46-1.86,93.58-1.42,94.71.75,1.91,4.32,2.93,4.48-.61.07-1.45.69-58.07.9-84.29,1-.65,15.15-21.59,18.2-33.12A87.5,87.5,0,0,0,190.18,92h0Z" style="fill: #184655"/>
          <path d="M155.54,65.55a7.36,7.36,0,0,1,1.76,5.59,6,6,0,0,1-5.07-2,7.3,7.3,0,0,1-1.77-5.58A6.08,6.08,0,0,1,155.54,65.55Z" style="fill: #3c8f7c"/>
          <path d="M162.64,65.25a9.83,9.83,0,0,1-5.19,5.91,8.11,8.11,0,0,1-1.17-7.25A9.83,9.83,0,0,1,161.47,58,8.08,8.08,0,0,1,162.64,65.25Z" style="fill: #50bfa5"/>
          <path d="M187.33,78.27a6.09,6.09,0,0,1,1.46,4.62,5,5,0,0,1-4.2-1.69,6,6,0,0,1-1.45-4.62A5,5,0,0,1,187.33,78.27Z" style="fill: #3c8f7c"/>
          <path d="M193.07,78a8.19,8.19,0,0,1-4.29,4.88,6.71,6.71,0,0,1-1-6A8.16,8.16,0,0,1,192.1,72,6.74,6.74,0,0,1,193.07,78Z" style="fill: #50bfa5"/>
          <path d="M181.48,109.42a6.06,6.06,0,0,1,3.66,3.17,5,5,0,0,1-4.46.76,6.07,6.07,0,0,1-3.65-3.17A5,5,0,0,1,181.48,109.42Z" style="fill: #3c8f7c"/>
          <path d="M186.24,106.21a8.07,8.07,0,0,1-1.1,6.4,6.73,6.73,0,0,1-4-4.6,8.15,8.15,0,0,1,1.1-6.4A6.71,6.71,0,0,1,186.24,106.21Z" style="fill: #50bfa5"/>
          <path d="M161.1,135.26a5.44,5.44,0,0,1,4.09,1.51,4.54,4.54,0,0,1-3.52,2,5.49,5.49,0,0,1-4.1-1.51A4.49,4.49,0,0,1,161.1,135.26Z" style="fill: #3c8f7c"/>
          <path d="M164.09,131a7.34,7.34,0,0,1,1.11,5.76,6.07,6.07,0,0,1-4.81-2.63,7.39,7.39,0,0,1-1.11-5.76A6.07,6.07,0,0,1,164.09,131Z" style="fill: #50bfa5"/>
          <path d="M158.25,101.75a6.12,6.12,0,0,1,4.8.62,5,5,0,0,1-3.3,3.09,6.07,6.07,0,0,1-4.8-.61A5,5,0,0,1,158.25,101.75Z" style="fill: #3c8f7c"/>
          <path d="M160.44,96.44a8.18,8.18,0,0,1,2.62,6,6.75,6.75,0,0,1-5.85-1.64,8.18,8.18,0,0,1-2.62-6A6.76,6.76,0,0,1,160.44,96.44Z" style="fill: #50bfa5"/>
          <path d="M192.37,94.43a4.24,4.24,0,0,1-2.51,2.31,3.51,3.51,0,0,1-.17-3.18,4.26,4.26,0,0,1,2.51-2.31A3.51,3.51,0,0,1,192.37,94.43Z" style="fill: #3c8f7c"/>
          <path d="M194.25,98a5.73,5.73,0,0,1-4.4-1.28,4.7,4.7,0,0,1,3.54-2.41,5.75,5.75,0,0,1,4.4,1.28A4.74,4.74,0,0,1,194.25,98Z" style="fill: #50bfa5"/>
          <path d="M164,79.85a4.26,4.26,0,0,1-1.64,3,3.5,3.5,0,0,1-1.18-3,4.26,4.26,0,0,1,1.64-3A3.53,3.53,0,0,1,164,79.85Z" style="fill: #3c8f7c"/>
          <path d="M167,82.66a5.71,5.71,0,0,1-4.58.18A4.76,4.76,0,0,1,165,79.43a5.75,5.75,0,0,1,4.58-.19A4.76,4.76,0,0,1,167,82.66Z" style="fill: #50bfa5"/>
          <path d="M183.14,126.73a3.33,3.33,0,0,1-2.47,1,2.77,2.77,0,0,1,.74-2.38,3.33,3.33,0,0,1,2.47-1A2.74,2.74,0,0,1,183.14,126.73Z" style="fill: #3c8f7c"/>
          <path d="M183.54,129.87a4.45,4.45,0,0,1-2.88-2.14,3.7,3.7,0,0,1,3.25-.8,4.49,4.49,0,0,1,2.88,2.14A3.68,3.68,0,0,1,183.54,129.87Z" style="fill: #50bfa5"/>
          <path d="M169.33,111.86a3.36,3.36,0,0,1-1.84,1.93,2.74,2.74,0,0,1-.3-2.47,3.35,3.35,0,0,1,1.84-1.94A2.76,2.76,0,0,1,169.33,111.86Z" style="fill: #3c8f7c"/>
          <path d="M171,114.56a4.49,4.49,0,0,1-3.5-.77,3.73,3.73,0,0,1,2.64-2.07,4.5,4.5,0,0,1,3.5.78A3.72,3.72,0,0,1,171,114.56Z" style="fill: #50bfa5"/>
          <path d="M130.77,223c2.52-1.73,3.71-4.15,6.76-4.3,2-.1,4.08-.11,5.76-1.17,2.3-1.44,5.13-2.5,7.23-4.22,1.72-1.4,4-1.78,6.24-2.1l10.78-1.58a15.22,15.22,0,0,1,4-.22c4.86.59,8,5.61,12.74,7,2.21.65,4.68.45,6.74,1.49,2.66,1.35,4,4.42,4.61,7.33.39,1.79,4,2.82,4.8,6.36.32.7-2.28-.33-2.93.07a4.8,4.8,0,0,1-2.22.48q-28.69,1.54-57.47.63c-2.31-.07-14.42,1.27-15.94-.85C120.08,229.41,128.88,224.26,130.77,223Z" style="fill: #b75742"/>
        </g>
        <g>
          <path d="M263.13,100.87s-4.51-1.14-5.26-1.44-3.68-.82-3.92-.45,1.78,2,1.93,2,3.34,1.24,3.46,1.24S263.13,100.87,263.13,100.87Z" style="fill: #f7a491"/>
          <path d="M309.12,65.93c-1.12,6-6.67,3.69-7.86,3.9L290.17,93.34l-25.6,7.51-6.3.07c.32.24-4.39,0-6.22,1,.1.31.63.7.76,1,1.46,2.84,3.57,5.09,4.31,8.2a15.1,15.1,0,0,0,4.3-1.16c1.73-.8,6.43-2.66,6.43-2.66s27.14-5.38,28.69-6.53C297.9,99.74,312.8,72.17,309.12,65.93Z" style="fill: #f7a491"/>
          <path d="M302.48,218.18l.45,7.42a39.44,39.44,0,0,1,.82,4.12c0,3.21-15.26-2.73-11.84-4.15.31-.13,1.93-1.1,2-2.2.16-1.68.56-5.09.56-5.09Z" style="fill: #f7a491"/>
          <path d="M292,225.54s3.58,1,5.41,1.23,4.26-1.82,5.55-1.27,1.38,6.16,1.38,6.16-19.21,1.57-24.61-.06C277.54,231,284.63,227.83,292,225.54Z" style="fill: #f47458"/>
          <path d="M327.71,100.71s1.68,11.25-.42,16.19S309.21,170.27,309,174.22s-5.52,47.59-5.52,47.59l-11.09-.31L290,173l5-61,4.88-15.42Z" style="fill: #13375b"/>
          <path d="M333.69,218.18l.45,7.42a39.33,39.33,0,0,1,.81,4.12c0,3.21-15.25-2.73-11.83-4.15.31-.13,2.41-1.83,2.51-2.92.16-1.69.08-4.37.08-4.37Z" style="fill: #f7a491"/>
          <path d="M323.16,225.54s3.58,1,5.41,1.23,4.25-1.82,5.55-1.27,1.49,6.16,1.49,6.16-19.3,1.83-24.72-.06C308.78,230.87,315.83,227.83,323.16,225.54Z" style="fill: #f47458"/>
          <path d="M330.24,101.3s2.58,12.5,1.53,22-1.14,43.14-1.14,43.14l4,53.87-9.54.21s-16-55.92-15.77-54.53-3.79-37.91-3.79-37.91l18.15-27.94Z" style="fill: #184655"/>
          <path d="M291.57,89.16l13,4.85s3.47-10.79,4.83-16c1.66-6.34,3.25-14.65,2.44-14.67A12,12,0,0,0,304,65.6C295.93,72.24,291.57,89.16,291.57,89.16Z" style="fill: #f7cc7f"/>
          <path d="M301.34,76.76c-.39,2-10.07,52-10.07,52,24.49,13.43,42.51,7,42.51,7s-.93-37,.32-42.14c.83-3.4,3.84-25.76,1.65-26.52a69.15,69.15,0,0,0-10.6-2.94c-3-.47-14.84-1.27-17-.67A27,27,0,0,0,301.34,76.76Z" style="fill: #fae0b2"/>
          <path d="M321.05,22.72s-9.07-4-11.49,3.9c0,0-7.91-.21-5.95,7.81,0,0-7.6,4.56-1.85,14.41,0,0-1.48,9.78,9.82,9.56,0,0,1.93,3.28,7,2.11s6.29-2.63,6.29-2.63,9.3,2,11.44-6.43c0,0,6.15-2,1.35-9.68,0,0,4.7-10.82-5.16-13.24C332.51,28.53,330.61,18,321.05,22.72Z" style="fill: #184655"/>
          <path d="M327.87,46.53c-.56,2,.1,4,1.47,4.37s3-1,3.51-3-.1-4-1.47-4.36S328.44,44.49,327.87,46.53Z" style="fill: #f7a491"/>
          <path d="M304,43.41c.06,2.11,1.26,3.79,2.68,3.75s2.54-1.78,2.48-3.89-1.25-3.78-2.68-3.75S303.91,41.3,304,43.41Z" style="fill: #f7a491"/>
          <path d="M314.31,56.32c0,.15-.83,5.54-1.27,8.39a2.24,2.24,0,0,0,1.45,2.46c2.69,1,7.94,2.28,11.25-1.19a1.54,1.54,0,0,0,.4-1.19l-1.37-12.61Z" style="fill: #f7a491"/>
          <path d="M313.87,59.34c2.86,1.18,6.34,1,10.06-1.62a15.07,15.07,0,0,0,1.33-1l-.49-4.52-10.46,4.14C314.32,56.4,314.12,57.69,313.87,59.34Z" style="fill: #f48c7f"/>
          <path d="M320,29.2A12.55,12.55,0,0,1,327.2,34c2.83,4,5.12,16-3.51,21.94s-15.8-1.75-16.2-9.51S309.79,28.53,320,29.2Z" style="fill: #f7a491"/>
          <path d="M311.7,49.93l9,.06a3.93,3.93,0,0,1-4.18,3.5C311.69,53.59,311.7,49.93,311.7,49.93Z" style="fill: #fff"/>
          <path d="M311.2,30.89s4.76-.45,7.55,1S328.1,44.27,330,43.69s2.64-7.39,1.91-8.73a49.86,49.86,0,0,0-4.35-6A41.72,41.72,0,0,0,322.41,27c-.75-.11-6.65.17-6.65.17Z" style="fill: #184655"/>
          <path d="M307.51,122.48c-.83-.51,2.17-3.94,1.76-4.81s-5,2.82-5.71,2.32c-1.27-.92,4.81-4.36,4.25-4.82s-7,2.78-7.17,1.35,7-2.66,6.65-3.42-6.6,1.76-7.66.29c-.56-.78,11.18-3,11.79-4.13s-4.23-3.08-3.91-4.22,8.45,4.16,9.17,4,15.83-4.69,20.52-6.89c-.59-1.69-2.65-11.79-3.24-13.36,3.45-.24,5.52-4.07,8.93-4.5,1.72,5.42,7,21.47,6.33,22.91-2.17,4.4-25.56,7.79-29.79,8.08s-5.25,2.17-7.55,3S308.35,123,307.51,122.48Z" style="fill: #f7a491"/>
          <path d="M347.39,93.93l-15.8,7.64S329.11,90,327.25,82.79c-1.59-6.17,6.29-17.15,8.91-15.64C342,70.51,347.39,93.93,347.39,93.93Z" style="fill: #f7cc7f"/>
          <g>
            <path d="M255,124.85l-2.12-2.67.7-.39a11,11,0,0,0,5.27-6.78,10.85,10.85,0,0,0-1.17-8.41,11.75,11.75,0,0,0-.9-1.32,11,11,0,0,0-16.68-.49l-.55.61-2.11-2.67.42-.43a14,14,0,0,1,10.87-4.43,14.33,14.33,0,0,1,9.06,25,15.26,15.26,0,0,1-2.27,1.66Z" style="fill: #355389"/>
            <path d="M257.05,126h0l-18.61-23.44-.08-.1-.13-.17-.81-1-.45-.57h0c-.16-.19-.3-.39-.45-.59-.28-.39-.5-.47-.94-.2-1.93,1.18-3.89,2.31-5.84,3.47a4.26,4.26,0,0,1-1.29.52c-2.85.66-5.69,1.34-8.54,2-.43.1-.53.22-.31.65s.42,1.13.69,1.67.12.74-.36,1c-.71.36-.68.39-.37,1.14,1.09,2.57,2.16,5.14,3.24,7.71q2.07,4.92,4.15,9.86c.41,1,.81,2,1.26,3l-1.3-.49-20.78-7.76a1.81,1.81,0,0,1-.93-.75c-.87-1.34-1.77-2.66-2.67-4-.33-.49-.67-1-1.08-1.54-1.4,3.75-2.76,7.4-4.17,11.16l6.51-1.72a1.22,1.22,0,0,1,.84,0L230.44,137a1.12,1.12,0,0,1,.61.65c.63,1.53,1.29,3,1.91,4.59.14.34.28.34.55.17l2.42-1.43q11-6.51,22-13c.37-.22.51-.34.16-.75S257.38,126.38,257.05,126Z" style="fill: #f47458"/>
            <polygon points="219.14 105.72 220.2 108.99 230.26 103.04 219.14 105.72" style="fill: #b75742"/>
            <path d="M205.43,122.21a1.73,1.73,0,0,1-.23-.29c-.87-1.34-1.77-2.66-2.67-4-.33-.49-.67-1-1.08-1.54-1.4,3.75-2.76,7.4-4.17,11.16l6.51-1.72,1.64-3.62Z" style="fill: #355389"/>
            <path d="M258.07,127.2c-.35-.41-.69-.82-1-1.24h0l-18.61-23.44-.08-.1-.13-.17-.81-1-.45-.57h0c-.16-.19-.3-.39-.45-.59-.28-.39-.5-.47-.94-.2-1.13.69-2.28,1.37-3.42,2,4.09,7.65,12.15,26.45-.14,38,.32.75.64,1.51.94,2.27.14.34.28.34.55.17l2.42-1.43q11-6.51,22-13C258.28,127.73,258.42,127.61,258.07,127.2Z" style="fill: #b75742;opacity: 0.5"/>
          </g>
          <path d="M260,107.18a1.78,1.78,0,0,1-.37,2.34c-1.32,1.07-3.71,2.59-5.29,1.13-2.29-2.11-3.3-8.82-2.12-8.86s7.25,2.38,7.13,3.64A2.65,2.65,0,0,0,260,107.18Z" style="fill: #ed9a8c"/>
        </g>
      </g>
    </g>
  </g>
</svg>
