<svg xmlns="http://www.w3.org/2000/svg" xmlns:xlink="http://www.w3.org/1999/xlink" version="1.1" id="Layer_1" x="0px" y="0px" viewBox="0 0 80 119.9" style="enable-background:new 0 0 80 119.9;" xml:space="preserve"><style type="text/css">
	.st0{fill:url(#SVGID_1_);}
	.st1{fill:#FAFAFA;}
	.st2{fill:#273654;}
	.st3{fill:#FFFFFF;}
	.st4{fill:url(#SVGID_2_);}
	.st5{fill:url(#SVGID_3_);}
	.st6{fill:url(#SVGID_4_);}
	.st7{fill:url(#SVGID_5_);}
	.st8{fill:url(#SVGID_6_);}
	.st9{fill:url(#SVGID_7_);}
	.st10{fill:url(#SVGID_8_);}
	.st11{fill:url(#SVGID_9_);}
	.st12{opacity:0.4;fill:url(#SVGID_10_);enable-background:new    ;}
	.st13{opacity:0.67;fill:#FFFFFF;enable-background:new    ;}
	.st14{fill:url(#SVGID_11_);}
	.st15{fill:url(#SVGID_12_);}
	.st16{fill:url(#SVGID_13_);}
	.st17{fill:url(#SVGID_14_);}
	.st18{fill:url(#SVGID_15_);}
	.st19{fill:url(#SVGID_16_);}
	.st20{fill:url(#SVGID_17_);}
	.st21{fill:url(#SVGID_18_);}
	.st22{fill:url(#SVGID_19_);}
	.st23{fill:url(#SVGID_20_);}
	.st24{fill:url(#SVGID_21_);}
	.st25{fill:url(#SVGID_22_);}
	.st26{fill:url(#SVGID_23_);}
	.st27{fill:url(#SVGID_24_);}
	.st28{fill:url(#SVGID_25_);}
	.st29{fill:url(#SVGID_26_);}
	.st30{fill:url(#SVGID_27_);}
	.st31{fill:url(#SVGID_28_);}
	.st32{fill:url(#SVGID_29_);}
</style><linearGradient id="SVGID_1_" gradientUnits="userSpaceOnUse" x1="556.3328" y1="-406.3098" x2="533.3007" y2="-393.0122" gradientTransform="matrix(0.9786 0.2056 0.2056 -0.9786 -431.4134 -471.0533)"><stop offset="0" style="stop-color:#579B94"/><stop offset="1" style="stop-color:#345053"/></linearGradient><path class="st0" d="M19.6,51.7l1.7-39.1c0-0.5-0.4-0.9-0.8-0.9l0,0l0,0c-0.5,0-0.9,0.4-0.9,0.8l-1.7,39.1c0,0.5,0.4,0.9,0.9,0.9  C19.1,52.6,19.5,52.2,19.6,51.7z"/><path class="st1" d="M38.2,34.2l-37-1.7c-0.7,0-1.2-0.6-1.2-1.3l1.3-30C1.4,0.5,1.9,0,2.6,0l37,1.7c0.7,0,1.2,0.6,1.2,1.3l-1.4,30  C39.4,33.7,38.8,34.2,38.2,34.2z"/><path class="st2" d="M9.8,9.1L8.3,9l-0.1,3.4h-1L7.3,9L5.9,8.9V8l2.5,0.1l1.5,0.1L9.8,9.1z"/><path class="st2" d="M15.6,8.4l-0.2,4.3h-1l0.1-1.8l-2-0.1l-0.1,1.8h-1l0.2-4.3h1l-0.1,1.6l2,0.1l0.1-1.6H15.6z"/><path class="st2" d="M22,12.9L22,12.9h-1.1l-0.3-0.8l-2-0.1l-0.3,0.7h-1.1v-0.1l2-4.2h1L22,12.9z M20.3,11.3l-0.6-1.6L19,11.3H20.3z  "/><path class="st2" d="M27.9,8.9l-0.2,4.3h-0.9l-2-2.8l-0.1,2.7h-1l0.2-4.3h0.9l2,2.8L27,8.9H27.9z"/><path class="st2" d="M34.1,13.5L34.1,13.5H33l-1.2-1.8L31,12.5v0.9h-1L30.2,9h1l-0.1,2.1l2-2h1.2l0,0L32.5,11L34.1,13.5z"/><rect x="15" y="4.1" transform="matrix(4.228457e-02 -0.9991 0.9991 4.228457e-02 -1.6862 40.437)" class="st2" width="10.4" height="33.9"/><path class="st3" d="M14.3,18.7l-1.8,2.5l-0.1,1.7h-1l0.1-1.7L10,18.6v-0.1h1.1l1,1.8l1.1-1.7L14.3,18.7L14.3,18.7z"/><path class="st3" d="M15.5,20.9c0.1-1.2,1-2.2,2.4-2.1s2.3,1.1,2.2,2.3c-0.1,1.2-1,2.2-2.4,2.1C16.3,23.1,15.5,22.1,15.5,20.9z   M19.1,21c0-0.7-0.4-1.3-1.3-1.4c-0.8,0-1.3,0.5-1.4,1.3c0,0.7,0.4,1.3,1.3,1.4C18.6,22.3,19.1,21.7,19.1,21z"/><path class="st3" d="M22.1,21.6l0.1-2.6h1L23,21.6c0,0.6,0.4,0.9,1,0.9s1-0.2,1-0.8l0.1-2.6h1L26,21.7c-0.1,1.2-0.9,1.8-2,1.7  C22.8,23.4,22,22.8,22.1,21.6z"/><path class="st3" d="M28,23c0-0.3,0.3-0.6,0.6-0.6c0.3,0,0.6,0.3,0.6,0.6c0,0.3-0.3,0.6-0.6,0.6C28.2,23.6,27.9,23.3,28,23z   M29.2,19.3v0.9L29,22.1h-0.7l-0.1-1.9v-0.9H29.2z"/><linearGradient id="SVGID_2_" gradientUnits="userSpaceOnUse" x1="-1299.4612" y1="833.4256" x2="-1290.3871" y2="833.4256" gradientTransform="matrix(-0.9413 0.3376 0.3376 0.9413 -1471.2036 -286.3952)"><stop offset="1.331947e-07" style="stop-color:#273755"/><stop offset="0.9962" style="stop-color:#579B94"/></linearGradient><path class="st4" d="M24.8,62.5c-0.8-2.4,0.4-5,2.7-5.8c2.4-0.8,5,0.4,5.8,2.7c0.8,2.4-0.4,5-2.7,5.8C28.2,66.1,25.6,64.8,24.8,62.5  z"/><linearGradient id="SVGID_3_" gradientUnits="userSpaceOnUse" x1="573.1639" y1="578.9912" x2="582.238" y2="578.9912" gradientTransform="matrix(0.7796 0.6263 0.6263 -0.7796 -796.4503 178.1155)"><stop offset="1.331947e-07" style="stop-color:#273755"/><stop offset="0.9962" style="stop-color:#579B94"/></linearGradient><path class="st5" d="M20.1,91.4c-1.6,2-4.4,2.3-6.4,0.7c-2-1.6-2.3-4.4-0.7-6.4s4.4-2.3,6.4-0.7C21.3,86.6,21.6,89.4,20.1,91.4z"/><linearGradient id="SVGID_4_" gradientUnits="userSpaceOnUse" x1="-1002.6532" y1="965.6898" x2="-989.9491" y2="965.6898" gradientTransform="matrix(-0.7243 0.6895 0.6895 0.7243 -1351.6523 52.2771)"><stop offset="0" style="stop-color:#FFFFFF"/><stop offset="1" style="stop-color:#A9DEDC"/></linearGradient><path class="st6" d="M32.2,57c0,0,14.2,4.6,11.9,10.6c-2.3,6.1-15.7-1.4-15.7-1.4s1.5-1.3,2.7-4.2C32.2,59.3,32.2,57,32.2,57z"/><linearGradient id="SVGID_5_" gradientUnits="userSpaceOnUse" x1="-1298.7686" y1="829.3352" x2="-1289.1232" y2="829.3352" gradientTransform="matrix(-0.9413 0.3376 0.3376 0.9413 -1471.2036 -286.3952)"><stop offset="0" style="stop-color:#FFFFFF"/><stop offset="1" style="stop-color:#A9DEDC"/></linearGradient><path class="st7" d="M31.6,56.6c0,0-2.4,0.8-4.3,2.5c-2.4,2.2-2.8,3.8-2.8,3.8s-4.7-5.7-2-8.3C25.4,51.7,31.6,56.6,31.6,56.6z"/><linearGradient id="SVGID_6_" gradientUnits="userSpaceOnUse" x1="462.9578" y1="-583.5986" x2="476.2105" y2="-506.47" gradientTransform="matrix(0.9925 -0.1223 -0.1223 -0.9925 -464.945 -416.6253)"><stop offset="0" style="stop-color:#D5EFEE"/><stop offset="0.9962" style="stop-color:#75CAC6"/></linearGradient><path class="st8" d="M74.1,54.8c-2.1-1.5-8.8-0.3-10.9,1.3c0.9,4.8,2.2,15.7-2.1,26.7c-1,2.6-2.5,5.1-4.2,7.2c3.1,2,9,4.6,11.7,3.8  c2.6-0.7,7.3-10.4,8.4-19.6C78.1,64.9,77.6,57.3,74.1,54.8z"/><linearGradient id="SVGID_7_" gradientUnits="userSpaceOnUse" x1="466.736" y1="-527.5921" x2="421.024" y2="-586.1144" gradientTransform="matrix(0.9925 -0.1223 -0.1223 -0.9925 -464.945 -416.6253)"><stop offset="0" style="stop-color:#FFFFFF"/><stop offset="1" style="stop-color:#A9DEDC"/></linearGradient><path class="st9" d="M63.2,56.1c-0.3-1.6-0.6-2.6-0.6-2.6l-23.8,8c0,0,1.8,7.4-3.3,14.2c-4.1,5.5-9.1,4.4-10.4,6.7  c-3.7,6.8,13.6,15.3,20.1,15.3c3,0,7.8-3.1,11.6-7.9c1.7-2.1,3.2-4.6,4.2-7.2C65.5,71.8,64.2,60.9,63.2,56.1z"/><linearGradient id="SVGID_8_" gradientUnits="userSpaceOnUse" x1="436.1039" y1="-515.373" x2="477.0877" y2="-542.6956" gradientTransform="matrix(0.9925 -0.1223 -0.1223 -0.9925 -464.945 -416.6253)"><stop offset="0" style="stop-color:#FFFFFF"/><stop offset="1" style="stop-color:#A9DEDC"/></linearGradient><path class="st10" d="M62.8,46.9c-0.1-0.3-0.1-0.6-0.2-1c0-0.1-0.1-0.3-0.1-0.4c-0.1-0.3-0.2-0.7-0.3-1l0,0  c-0.2-0.4-0.3-0.8-0.5-1.1s-0.4-0.7-0.6-1c-0.5-0.8-1-1.5-1.6-2.1c-0.2-0.3-0.5-0.5-0.7-0.8c-0.3-0.3-0.5-0.5-0.8-0.7l-0.1-0.1  c-0.3-0.3-0.6-0.5-1-0.7c0,0,0,0-0.1-0.1c-0.3-0.2-0.6-0.4-0.9-0.6c-0.3-0.2-0.6-0.3-0.9-0.5c-0.1,0-0.2-0.1-0.3-0.1  c-0.7-0.3-1.4-0.6-2.2-0.8c-0.4-0.1-0.8-0.2-1.3-0.3c-0.3-0.1-0.6-0.1-0.9-0.2c-0.1,0-0.2,0-0.2,0l0,0c-1.2-0.2-2.5-0.2-3.8,0  c-3.2,0.4-6,1.7-8.2,3.7c-0.1,0-0.6,21.6-0.6,21.7l0,0c0.1,0.1,0.1,0.1,0.2,0.2c0.2,0.2,0.3,0.3,0.5,0.5c0.2,0.1,0.3,0.3,0.5,0.4  c0.2,0.1,0.4,0.3,0.5,0.4c0.2,0.1,0.4,0.3,0.6,0.4c0.2,0.1,0.4,0.3,0.6,0.4c0.2,0.1,0.4,0.2,0.5,0.3c0.2,0.1,0.4,0.2,0.7,0.3  c0.2,0.1,0.4,0.2,0.6,0.3c0.4,0.2,0.9,0.4,1.3,0.5c0.2,0.1,0.4,0.1,0.6,0.2c0.2,0.1,0.4,0.1,0.7,0.2c0.4,0.1,0.8,0.2,1.2,0.2  c0.5,0.1,1.1,0.1,1.6,0.1c0.2,0,0.5,0,0.7,0c0.5,0,1,0,1.5-0.1c8.2-1,14-8.5,13-16.6C62.9,47.7,62.9,47.3,62.8,46.9z"/><linearGradient id="SVGID_9_" gradientUnits="userSpaceOnUse" x1="438.0052" y1="-517.4166" x2="459.11" y2="-534.4664" gradientTransform="matrix(0.9925 -0.1223 -0.1223 -0.9925 -464.945 -416.6253)"><stop offset="1.331947e-07" style="stop-color:#273755"/><stop offset="0.9962" style="stop-color:#579B94"/></linearGradient><path class="st11" d="M56.1,52.9c-0.8,4-2.5,6.5-3.4,6.9c-1.5,0.7-3.3,1.3-10,1.2c-2,0-3.7-0.3-5-0.5l0,0c-0.1-0.1-0.2-0.2-0.3-0.3  c-0.2-0.2-0.3-0.3-0.5-0.5c-1.1-1.2-1.9-2.6-2.5-4.1c-0.2-0.5-0.3-1-0.5-1.4c-0.1-0.3-0.2-0.7-0.3-1c0-0.1,0-0.2-0.1-0.2l0,0  c-0.1-0.4-0.2-0.7-0.2-1.1c-0.6-5,1.3-9.8,4.8-12.9c1.6-0.2,4.1-0.2,7.6,0.4c4.2,0.6,7.5,2.1,9.2,3.3c0.5,0.3,0.8,0.7,1,0.9  C56.6,44.5,57.1,47.7,56.1,52.9z"/><linearGradient id="SVGID_10_" gradientUnits="userSpaceOnUse" x1="358.5853" y1="-263.6214" x2="387.6124" y2="-263.6214" gradientTransform="matrix(0.9907 0.1357 0.1357 -0.9907 -285.2627 -261.8423)"><stop offset="1.331947e-07" style="stop-color:#273755"/><stop offset="0.9962" style="stop-color:#579B94"/></linearGradient><path class="st12" d="M63,48.1c1,8.2-4.8,15.6-13,16.6c-0.5,0.1-1,0.1-1.5,0.1c-0.2,0-0.5,0-0.7,0c-0.5,0-1.1,0-1.6-0.1  c-0.4-0.1-0.8-0.1-1.2-0.2c-0.2,0-0.4-0.1-0.7-0.2c-0.2,0-0.4-0.1-0.6-0.2c-0.5-0.1-0.9-0.3-1.3-0.5c-0.2-0.1-0.4-0.2-0.6-0.3  c-0.2-0.1-0.5-0.2-0.7-0.3s-0.4-0.2-0.5-0.3c-0.2-0.1-0.4-0.2-0.6-0.4c-0.2-0.1-0.4-0.2-0.6-0.4c-0.2-0.1-0.4-0.3-0.5-0.4  c-0.2-0.1-0.3-0.3-0.5-0.4c-0.2-0.2-0.3-0.3-0.5-0.5c-0.1-0.1-0.1-0.1-0.2-0.2l0,0c-0.1-0.1-0.2-0.2-0.3-0.3  c-0.2-0.2-0.3-0.3-0.5-0.5c-1-1.2-1.9-2.6-2.5-4.1c-0.3-0.9-0.6-1.8-0.8-2.7c2.2,3.4,6.1,5.7,11.3,5.1C53.5,56.8,56.6,49,55,42.5  c-0.7-2.9-2.4-5.6-4.8-7.4c0.8,0.1,1.6,0.3,2.4,0.5c0.7,0.2,1.5,0.5,2.2,0.8c0.1,0,0.2,0.1,0.3,0.1c0.3,0.2,0.6,0.3,0.9,0.5  c0.3,0.2,0.6,0.4,0.9,0.6l0.1,0.1c0.3,0.2,0.6,0.5,1,0.7l0.1,0.1c0.3,0.2,0.5,0.5,0.8,0.7c0.3,0.3,0.5,0.5,0.7,0.8  c0.6,0.7,1.1,1.4,1.6,2.1c0.2,0.3,0.4,0.7,0.6,1c0.2,0.4,0.3,0.7,0.5,1.1l0,0c0.1,0.3,0.2,0.7,0.3,1c0,0.1,0.1,0.3,0.1,0.4  c0.1,0.3,0.2,0.6,0.2,1C62.9,47.3,62.9,47.7,63,48.1z"/><path class="st13" d="M39.8,45.8c-0.9,2.4-2.6,3.9-3.8,3.4s-1.4-2.7-0.5-5.1c0.9-2.4,2.6-3.9,3.8-3.4C40.5,41.1,40.7,43.4,39.8,45.8  z"/><path class="st13" d="M43.4,41.2C43,41.8,42.3,42,42,41.8c-0.4-0.3-0.3-1,0.1-1.5c0.4-0.6,1.1-0.8,1.4-0.6  C43.9,39.9,43.8,40.6,43.4,41.2z"/><path class="st13" d="M39.7,52.2c0.1,1.3-0.3,2.3-0.9,2.4c-0.6,0.1-1.2-0.9-1.3-2.2s0.3-2.3,0.9-2.4C39,50,39.6,51,39.7,52.2z"/><linearGradient id="SVGID_11_" gradientUnits="userSpaceOnUse" x1="288.9865" y1="-798.3484" x2="298.1053" y2="-798.3484" gradientTransform="matrix(0.9476 -0.3194 -0.3194 -0.9476 -467.2171 -586.2028)"><stop offset="1.331947e-07" style="stop-color:#273755"/><stop offset="0.9962" style="stop-color:#579B94"/></linearGradient><path class="st14" d="M70.3,75.1c0.8,2.4-0.5,5-2.9,5.8s-5-0.5-5.8-2.9s0.5-5,2.9-5.8C66.9,71.5,69.5,72.7,70.3,75.1z"/><linearGradient id="SVGID_12_" gradientUnits="userSpaceOnUse" x1="457.9867" y1="-547.1285" x2="470.6906" y2="-547.1285" gradientTransform="matrix(0.9925 -0.1223 -0.1223 -0.9925 -464.945 -416.6253)"><stop offset="0" style="stop-color:#FFFFFF"/><stop offset="1" style="stop-color:#A9DEDC"/></linearGradient><path class="st15" d="M61.1,78c0,0-8.7-12.1-3.2-15.6s11.8,10.5,11.8,10.5s-2,0.2-4.7,1.8C62.4,76.2,61.1,78,61.1,78z"/><linearGradient id="SVGID_13_" gradientUnits="userSpaceOnUse" x1="324.7076" y1="-760.1572" x2="334.3997" y2="-760.1572" gradientTransform="matrix(0.9589 -0.2838 -0.2838 -0.9589 -463.6055 -555.0268)"><stop offset="0" style="stop-color:#FFFFFF"/><stop offset="1" style="stop-color:#A9DEDC"/></linearGradient><path class="st16" d="M63.2,80.8c0,0,2.4-0.6,4.4-2.2c2.6-2.1,3.1-3.6,3.1-3.6s4.4,6,1.5,8.5C69.1,86.1,63.2,80.8,63.2,80.8z"/><linearGradient id="SVGID_14_" gradientUnits="userSpaceOnUse" x1="601.79" y1="614.1398" x2="609.0513" y2="615.35" gradientTransform="matrix(0.7659 0.6429 0.6429 -0.7659 -782.9148 165.8714)"><stop offset="0" style="stop-color:#FFFFFF"/><stop offset="1" style="stop-color:#A9DEDC"/></linearGradient><path class="st17" d="M73.7,82.2c0,0,0.8,0.8,2.1,0.7c1.2-0.1,2.3-1.4,3-0.9c0.6,0.5,1.7,2.2,1.1,3.1c-1,1.5-3.1,1.2-3.1,1.2  s1.4,0.4,1.3,1.4s-2.3,0.7-4.1-0.8c-1.8-1.5-2.2-2.5-2.2-2.5L73.7,82.2z"/><linearGradient id="SVGID_15_" gradientUnits="userSpaceOnUse" x1="601.1423" y1="615.6385" x2="603.2391" y2="610.5004" gradientTransform="matrix(0.7659 0.6429 0.6429 -0.7659 -782.9148 165.8714)"><stop offset="1.331947e-07" style="stop-color:#273755"/><stop offset="0.9962" style="stop-color:#579B94"/></linearGradient><path class="st18" d="M72.2,84.9c-0.3,0.3-0.7,0.4-1.1,0.1l0,0c-0.3-0.3-0.4-0.7-0.1-1.1l1.8-2.2c0.3-0.3,0.7-0.4,1.1-0.1l0,0  c0.3,0.3,0.4,0.7,0.1,1.1L72.2,84.9z"/><linearGradient id="SVGID_16_" gradientUnits="userSpaceOnUse" x1="-91.3313" y1="330.6632" x2="-82.0499" y2="322.3244" gradientTransform="matrix(0.6937 0.7203 0.7203 -0.6937 -154.6995 339.1785)"><stop offset="0" style="stop-color:#FFFFFF"/><stop offset="1" style="stop-color:#A9DEDC"/></linearGradient><path class="st19" d="M23.5,53c0,0-0.8-0.8-0.8-2s0.5-3-0.1-3.7c-0.6-0.6-4-2.9-5.1-1.4c-1.1,1.4,1.7,4.2,1.7,4.2s-0.5-1.4-1.4-1.2  c-1,0.2-0.6,2.4,1,4.1c1.6,1.7,2.6,2,2.6,2L23.5,53z"/><linearGradient id="SVGID_17_" gradientUnits="userSpaceOnUse" x1="-1565.5016" y1="365.7441" x2="-1563.405" y2="360.6062" gradientTransform="matrix(-0.6816 -0.7317 0.7317 -0.6816 -1309.7388 -842.805)"><stop offset="1.331947e-07" style="stop-color:#273755"/><stop offset="0.9962" style="stop-color:#579B94"/></linearGradient><path class="st20" d="M20.9,54.7c-0.3,0.3-0.3,0.8,0,1.1l0,0c0.3,0.3,0.8,0.3,1.1,0l2.1-1.9c0.3-0.3,0.3-0.8,0-1.1l0,0  c-0.3-0.3-0.8-0.3-1.1,0L20.9,54.7z"/><linearGradient id="SVGID_18_" gradientUnits="userSpaceOnUse" x1="422.4717" y1="-553.2015" x2="427.9092" y2="-565.459" gradientTransform="matrix(0.9925 -0.1223 -0.1223 -0.9925 -464.945 -416.6253)"><stop offset="0" style="stop-color:#FFFFFF"/><stop offset="1" style="stop-color:#A9DEDC"/></linearGradient><path class="st21" d="M33.7,83.3c-1.5-4.9-17,0-17,0s-0.9,1.8,0.1,5.1c1,3.3,2.6,4.4,2.6,4.4S35.2,88.1,33.7,83.3z"/><linearGradient id="SVGID_19_" gradientUnits="userSpaceOnUse" x1="312.1591" y1="-701.9333" x2="314.4344" y2="-716.2681" gradientTransform="matrix(0.9707 -0.2403 -0.2403 -0.9707 -462.7494 -521.8203)"><stop offset="0" style="stop-color:#FFFFFF"/><stop offset="1" style="stop-color:#A9DEDC"/></linearGradient><path class="st22" d="M7.1,90.4c-0.8-4.4,6.2-6,6.2-6s-0.8,1.8-0.2,5.1c0.6,3.3,2.2,4.6,2.2,4.6S7.9,94.8,7.1,90.4z"/><linearGradient id="SVGID_20_" gradientUnits="userSpaceOnUse" x1="-29.127" y1="1376.118" x2="-20.6251" y2="1376.118" gradientTransform="matrix(0.2081 0.9781 0.9781 -0.2081 -1336.46 399.5598)"><stop offset="0" style="stop-color:#FFFFFF"/><stop offset="1" style="stop-color:#A9DEDC"/></linearGradient><path class="st23" d="M6.9,89L6,88.8c0,0-0.9-1.7-2.4-2.6c-1.5-0.8-2.6-1-2.6-1l1.4,6.5c0.2,1,1.2,1.6,2.2,1.4l2.1-0.4l0.9-0.6  L6.9,89z"/><linearGradient id="SVGID_21_" gradientUnits="userSpaceOnUse" x1="-24.876" y1="1378.3782" x2="-20.2449" y2="1378.3782" gradientTransform="matrix(0.2081 0.9781 0.9781 -0.2081 -1336.46 399.5598)"><stop offset="1.331947e-07" style="stop-color:#273755"/><stop offset="0.9962" style="stop-color:#579B94"/></linearGradient><path class="st24" d="M7.5,92.9c-0.4,0.1-0.8-0.2-0.8-0.6L6,89.2c-0.1-0.4,0.2-0.8,0.6-0.8l0,0C7,88.3,7.4,88.6,7.4,89L8,92.1  C8.1,92.5,7.9,92.8,7.5,92.9L7.5,92.9z"/><linearGradient id="SVGID_22_" gradientUnits="userSpaceOnUse" x1="193.6382" y1="-854.7391" x2="202.7121" y2="-854.7391" gradientTransform="matrix(0.365 0.9311 -0.9311 0.365 -830.5288 232.2159)"><stop offset="1.331947e-07" style="stop-color:#273755"/><stop offset="0.9962" style="stop-color:#579B94"/></linearGradient><path class="st25" d="M39.3,109c2.3-0.9,3.5-3.5,2.6-5.9c-0.9-2.3-3.5-3.5-5.9-2.6c-2.3,0.9-3.5,3.5-2.6,5.9  C34.3,108.7,37,109.9,39.3,109z"/><linearGradient id="SVGID_23_" gradientUnits="userSpaceOnUse" x1="434.7205" y1="-568.3311" x2="449.7024" y2="-578.0316" gradientTransform="matrix(0.9925 -0.1223 -0.1223 -0.9925 -464.945 -416.6253)"><stop offset="0" style="stop-color:#FFFFFF"/><stop offset="1" style="stop-color:#A9DEDC"/></linearGradient><path class="st26" d="M47.9,90.3c4.2,3.1-5.5,16.1-5.5,16.1s-2,0.3-4.8-1.8c-2.8-2-3.3-3.9-3.3-3.9S43.9,87.3,47.9,90.3z"/><linearGradient id="SVGID_24_" gradientUnits="userSpaceOnUse" x1="425.6617" y1="-578.6159" x2="441.0514" y2="-590.4842" gradientTransform="matrix(0.9925 -0.1223 -0.1223 -0.9925 -464.945 -416.6253)"><stop offset="0" style="stop-color:#FFFFFF"/><stop offset="1" style="stop-color:#A9DEDC"/></linearGradient><path class="st27" d="M31.5,112.2c3.5,2.9,8.3-2.5,8.3-2.5s-2-0.2-4.6-2.3c-2.6-2.1-2.9-4.2-2.9-4.2S28.1,109.4,31.5,112.2z"/><linearGradient id="SVGID_25_" gradientUnits="userSpaceOnUse" x1="421.3011" y1="-584.5514" x2="432.8213" y2="-591.9243" gradientTransform="matrix(0.9925 -0.1223 -0.1223 -0.9925 -464.945 -416.6253)"><stop offset="0" style="stop-color:#FFFFFF"/><stop offset="1" style="stop-color:#A9DEDC"/></linearGradient><path class="st28" d="M32.7,113l-0.3,0.8c0,0,1.1,1.6,1.1,3.3c0,1.7-0.3,2.8-0.3,2.8l-5-4.3c-0.8-0.7-0.9-1.8-0.2-2.6l1.4-1.6  l0.9-0.5L32.7,113z"/><linearGradient id="SVGID_26_" gradientUnits="userSpaceOnUse" x1="424.8026" y1="-582.3561" x2="431.6225" y2="-589.3603" gradientTransform="matrix(0.9925 -0.1223 -0.1223 -0.9925 -464.945 -416.6253)"><stop offset="1.331947e-07" style="stop-color:#273755"/><stop offset="0.9962" style="stop-color:#579B94"/></linearGradient><path class="st29" d="M29.5,110.6c-0.3,0.3-0.2,0.8,0.1,1l2.4,2.1c0.3,0.3,0.8,0.2,1-0.1l0,0c0.3-0.3,0.2-0.8-0.1-1l-2.4-2.1  C30.2,110.3,29.7,110.3,29.5,110.6L29.5,110.6z"/><linearGradient id="SVGID_27_" gradientUnits="userSpaceOnUse" x1="442.8656" y1="-540.6296" x2="448.4022" y2="-564.3445" gradientTransform="matrix(0.9925 -0.1223 -0.1223 -0.9925 -464.945 -416.6253)"><stop offset="1.331947e-07" style="stop-color:#273755"/><stop offset="0.9962" style="stop-color:#579B94"/></linearGradient><path class="st30" d="M40.4,67.3c-0.6,0.5-0.5,2.5-2,5.7c-1.2,2.6-3.2,4.2-3.1,4.6c0.1,0.4,1.5,1.8,3.7,3.1c2.7,1.6,6.3,2.4,7.2,2.2  c0.9-0.2,3.5-3.1,4.5-5.9c1.2-3.6,1.3-8.3,0.6-8.7c-0.7-0.4-2.8,0-6.3-0.3C41.9,67.6,40.9,67,40.4,67.3z"/><linearGradient id="SVGID_28_" gradientUnits="userSpaceOnUse" x1="655.9706" y1="4.8923" x2="656.0629" y2="12.2654" gradientTransform="matrix(0.9588 0.284 0.284 -0.9588 -562.4597 -89.6145)"><stop offset="1.331947e-07" style="stop-color:#273755"/><stop offset="0.9962" style="stop-color:#579B94"/></linearGradient><path class="st31" d="M70.4,87.9c-0.3,0.9-1,1.5-1.6,1.3s-0.9-1.1-0.7-2c0.3-0.9,1-1.5,1.6-1.3C70.4,86.1,70.7,87,70.4,87.9z"/><path class="st3" d="M50.3,71.6c-0.3,0.9-1,1.5-1.6,1.3s-0.9-1.1-0.7-2c0.3-0.9,1-1.5,1.6-1.3C50.2,69.9,50.5,70.7,50.3,71.6z"/><path class="st3" d="M49.2,72.2c8.5,4,3,17.6,4.2,24.8c0.8,4.8,5.8,8.9,10.6,8.7c9.5-0.5,15-13.5,5.9-18.7c-0.8-0.5-1.4,0.9-0.6,1.4  c5,2.9,4.6,8.5,1.4,12.6c-4.1,5.2-12.2,3.4-15.1-2.8c-3-6.4,5.2-22.1-5.7-27.3C48.9,70.5,48.3,71.8,49.2,72.2L49.2,72.2z"/><linearGradient id="SVGID_29_" gradientUnits="userSpaceOnUse" x1="-90.3343" y1="325.4475" x2="-85.3686" y2="324.4821" gradientTransform="matrix(0.6937 0.7203 0.7203 -0.6937 -154.6995 339.1785)"><stop offset="0" style="stop-color:#FFFFFF"/><stop offset="1" style="stop-color:#C0E7E4"/></linearGradient><path class="st32" d="M17.6,48.8c0.9-0.4,1.6,1,2.1,1.6c0.5,0.7,0.5,1,0.5,1s0,2.1-0.9,1.9c-0.2-0.1-0.7-0.7-1-1  C18.3,52.3,16.2,49.4,17.6,48.8z"/></svg>