<svg xmlns="http://www.w3.org/2000/svg" id="Layer_1" viewBox="0 0 1920 534.8" preserveAspectRatio="xMaxYMax"><style>.st0{fill:#4b7230}.st1{fill:#273654}.st2{fill:#FFF}.st3{fill:#518360}.st4{fill:#89b636}.st5{fill:#e8a3a8}.st6{fill:#f34b51}.st7{fill:#1a263a}.st8{fill:#d5e6ef}.st9{fill:#c39276}.st10{fill:#a74e25}.st11{fill:#b5846b}.st12{fill:#d9d9d9}.st13{fill:#396344}.st14{fill:#b5c4cb}.st15{fill:#794765}.st16{fill:#d69ea5}.st17{fill:#682e17}.st18{fill:#e8bbaa}.st19{fill:#fbbac2}.st20{fill:#c6dbf6}.st21{fill:#d8ac9e}.st22{fill:#a5b6db}.st23{fill:#7a5c48}.st24{fill:#b0b53f}.st25{fill:#ffc188}.st26{fill:#354b6d}.st27{fill:#eaccb7}.st28{fill:#f9e2d2}.st29{fill:#81a534}.st30{fill:#43704f}.st31{fill:#c19178}.st32{fill:#e2ab8d}.st33{fill:#5c843d}.st34{fill:#634a39}.st35{fill:#7fa32f}.st36{fill:#af8069}</style><path class="st0" d="M1042.5 355.1C930.2 314.6 745.3 313.9 623.3 243c-110.6-64.3-167.6-67.9-323.5-81-104.7-8.8-215.3-8.7-299.8-55.4v428.2h1281.7c-19.9-73.8-140.8-144.2-239.2-179.7z"/><path class="st1" d="M1549.4 223.1c-59.4 19.5-100 54.9-159.9 74.6-70.6 23.3-159.4 17.2-225.9 43.3-66.5 26-91.6 73.9-164.8 97.8-72 23.5-156.8 25.7-236.4 28.4-117.8 4-296.3 5.8-376.7 67.6H1920V167.6c-102.7 38-268.2 21.8-370.6 55.5z"/><path class="st2" d="M1160.3 398.5c-1.2 0-2.1-.9-2.1-2.1s.9-2.1 2.1-2.1 2.1.9 2.1 2.1-.9 2.1-2.1 2.1zm0 16.9c-1.2 0-2.1-.9-2.1-2.1s.9-2.1 2.1-2.1 2.1.9 2.1 2.1c0 1.1-.9 2.1-2.1 2.1zm0 16.9c-1.2 0-2.1-.9-2.1-2.1s.9-2.1 2.1-2.1 2.1.9 2.1 2.1-.9 2.1-2.1 2.1zm16.9-50.8c-1.2 0-2.1-.9-2.1-2.1s.9-2.1 2.1-2.1 2.1.9 2.1 2.1-.9 2.1-2.1 2.1z"/><ellipse transform="rotate(-22.676 1177.203 396.34)" class="st2" cx="1177.2" cy="396.3" rx="2.1" ry="2.1"/><path class="st2" d="M1177.2 415.4c-1.2 0-2.1-.9-2.1-2.1s.9-2.1 2.1-2.1 2.1.9 2.1 2.1c0 1.1-.9 2.1-2.1 2.1zm0 16.9c-1.2 0-2.1-.9-2.1-2.1s.9-2.1 2.1-2.1 2.1.9 2.1 2.1-.9 2.1-2.1 2.1zm16.9-67.7c-1.2 0-2.1-.9-2.1-2.1s.9-2.1 2.1-2.1 2.1.9 2.1 2.1c.1 1.1-.9 2.1-2.1 2.1zm0 16.9c-1.2 0-2.1-.9-2.1-2.1s.9-2.1 2.1-2.1 2.1.9 2.1 2.1c.1 1.2-.9 2.1-2.1 2.1zm0 17c-1.2 0-2.1-.9-2.1-2.1s.9-2.1 2.1-2.1 2.1.9 2.1 2.1-.9 2.1-2.1 2.1zm0 16.9c-1.2 0-2.1-.9-2.1-2.1s.9-2.1 2.1-2.1 2.1.9 2.1 2.1c.1 1.1-.9 2.1-2.1 2.1zm0 16.9c-1.2 0-2.1-.9-2.1-2.1s.9-2.1 2.1-2.1 2.1.9 2.1 2.1c.1 1.2-.9 2.1-2.1 2.1zm16.9-67.7c-1.2 0-2.1-.9-2.1-2.1s.9-2.1 2.1-2.1 2.1.9 2.1 2.1c0 1.1-.9 2.1-2.1 2.1zm0 16.9c-1.2 0-2.1-.9-2.1-2.1s.9-2.1 2.1-2.1 2.1.9 2.1 2.1-.9 2.1-2.1 2.1z"/><circle class="st2" cx="1211" cy="396.3" r="2.1"/><path class="st2" d="M1211 415.4c-1.2 0-2.1-.9-2.1-2.1s.9-2.1 2.1-2.1 2.1.9 2.1 2.1c0 1.1-.9 2.1-2.1 2.1zm0 16.9c-1.2 0-2.1-.9-2.1-2.1s.9-2.1 2.1-2.1 2.1.9 2.1 2.1-.9 2.1-2.1 2.1zm16.9-67.7c-1.2 0-2.1-.9-2.1-2.1s.9-2.1 2.1-2.1 2.1.9 2.1 2.1c.1 1.1-.9 2.1-2.1 2.1zm0 16.9c-1.2 0-2.1-.9-2.1-2.1s.9-2.1 2.1-2.1 2.1.9 2.1 2.1c.1 1.2-.9 2.1-2.1 2.1z"/><circle class="st2" cx="1227.9" cy="396.3" r="2.1"/><path class="st2" d="M1261.8 398.5c1.2 0 2.1-.9 2.1-2.1s-.9-2.1-2.1-2.1-2.1.9-2.1 2.1.9 2.1 2.1 2.1zm-33.9 16.9c-1.2 0-2.1-.9-2.1-2.1s.9-2.1 2.1-2.1 2.1.9 2.1 2.1c.1 1.1-.9 2.1-2.1 2.1zm0 16.9c-1.2 0-2.1-.9-2.1-2.1s.9-2.1 2.1-2.1 2.1.9 2.1 2.1c.1 1.2-.9 2.1-2.1 2.1zm50.8-16.9c1.2 0 2.1-.9 2.1-2.1s-.9-2.1-2.1-2.1-2.1.9-2.1 2.1c0 1.1.9 2.1 2.1 2.1zm0 16.9c1.2 0 2.1-.9 2.1-2.1s-.9-2.1-2.1-2.1-2.1.9-2.1 2.1.9 2.1 2.1 2.1zm-16.9-16.9c1.2 0 2.1-.9 2.1-2.1s-.9-2.1-2.1-2.1-2.1.9-2.1 2.1c-.1 1.1.9 2.1 2.1 2.1zm0 16.9c1.2 0 2.1-.9 2.1-2.1s-.9-2.1-2.1-2.1-2.1.9-2.1 2.1c-.1 1.2.9 2.1 2.1 2.1zm-16.9-67.7c-1.2 0-2.1-.9-2.1-2.1s.9-2.1 2.1-2.1 2.1.9 2.1 2.1c0 1.1-.9 2.1-2.1 2.1zm0 16.9c-1.2 0-2.1-.9-2.1-2.1s.9-2.1 2.1-2.1 2.1.9 2.1 2.1-.9 2.1-2.1 2.1zm0 17c-1.2 0-2.1-.9-2.1-2.1s.9-2.1 2.1-2.1 2.1.9 2.1 2.1-.9 2.1-2.1 2.1zm0 16.9c-1.2 0-2.1-.9-2.1-2.1s.9-2.1 2.1-2.1 2.1.9 2.1 2.1c0 1.1-.9 2.1-2.1 2.1zm0 16.9c-1.2 0-2.1-.9-2.1-2.1s.9-2.1 2.1-2.1 2.1.9 2.1 2.1-.9 2.1-2.1 2.1z"/><path class="st3" d="M1920 347.7c-142.7 11.5-287.8 17.2-411.4 59.9-48.1 16.6-91.2 38.4-141.4 52.6-69.8 19.7-148.5 23.2-224.5 30.7-67.7 6.7-137.7 17.9-190 43.9H1920V347.7z"/><path class="st4" d="M1255 508.6c-83.1-26.5-88.5-51.6-159.6-78.4-124.9-47.1-277.4-52.6-397.5-74.1-147.2-26.3-152.1-88.7-356.1-118C208.9 219.1 100.9 228 0 212v322.7h1422.5c-59.1-4.1-121-11.2-167.5-26.1z"/><path class="st2" d="M701.2 438.3l-1.1-.3c1.4-5.2 1.7-10.8.8-16.1-.9-5.3-2.9-10.5-5.9-14.9l1-.6c3.1 4.6 5.2 9.9 6.1 15.4.9 5.3.6 11.1-.9 16.5z"/><path class="st1" d="M698.7 406.5c0-1.8-1.4-3.3-3.3-3.3s-3.3 1.4-3.3 3.3 1.4 3.3 3.3 3.3 3.3-1.4 3.3-3.3z"/><path class="st2" d="M716.1 438.1h-1.2c0-6 .4-9.1 3.1-12.9 2.3-3.3 5.7-4.5 7-5l.4 1.1c-1.3.4-4.3 1.6-6.4 4.6-2.5 3.5-2.9 6.4-2.9 12.2z"/><path class="st0" d="M728.4 420.8c0-1.8-1.4-3.3-3.3-3.3-1.8 0-3.3 1.4-3.3 3.3s1.4 3.3 3.3 3.3c1.8-.1 3.3-1.5 3.3-3.3z"/><path class="st2" d="M709.7 438.2h-1.2c.2-3.7.2-7.5 0-11.3-.2-4.6-.8-9.2-1.8-13.7l1.2-.2c.9 4.6 1.5 9.2 1.8 13.9.3 3.6.3 7.5 0 11.3z"/><path class="st1" d="M710.6 413c0-1.8-1.4-3.3-3.3-3.3-1.8 0-3.3 1.4-3.3 3.3s1.4 3.3 3.3 3.3 3.3-1.5 3.3-3.3z"/><path class="st2" d="M367 352.2c-.3-1.7-1-7.8 3.1-13 2.2-2.8 5-4.3 6.9-5l.4 1.1c-1.8.6-4.4 2-6.5 4.6-3.8 4.8-3.2 10.5-2.9 12.1l-1 .2z"/><path class="st0" d="M380.6 334.7c0-1.8-1.4-3.3-3.3-3.3-1.8 0-3.3 1.4-3.3 3.3 0 1.8 1.4 3.3 3.3 3.3 1.8 0 3.3-1.4 3.3-3.3z"/><path class="st2" d="M362.8 352.2c-.6-6.3-.3-12.7.9-18.9 1.2-6 3.4-11.8 6.4-17.1l1 .6c-2.9 5.3-5 10.9-6.2 16.8-1.3 6.1-1.6 12.3-.9 18.5l-1.2.1z"/><path class="st0" d="M374 316.5c0-1.8-1.4-3.3-3.3-3.3-1.8 0-3.3 1.4-3.3 3.3 0 1.8 1.4 3.3 3.3 3.3 1.8-.1 3.3-1.5 3.3-3.3z"/><path class="st2" d="M359.2 352.2l-1.2-.2c.6-3.4 1.4-12.2-4.1-19.7-1.7-2.4-4-4.4-6.5-6.1l.6-1c2.7 1.7 5.1 3.8 6.9 6.4 5.9 7.8 5 17 4.3 20.6z"/><circle class="st1" cx="347.7" cy="325.7" r="3.3"/><circle class="st2" cx="412.4" cy="195.3" r="2.1"/><circle class="st2" cx="412.4" cy="212.2" r="2.1"/><path class="st2" d="M429.3 197.4c-1.2 0-2.1-.9-2.1-2.1s.9-2.1 2.1-2.1 2.1.9 2.1 2.1c.1 1.2-.9 2.1-2.1 2.1zm0 17c-1.2 0-2.1-.9-2.1-2.1s.9-2.1 2.1-2.1 2.1.9 2.1 2.1-.9 2.1-2.1 2.1zm0 16.8c-1.2 0-2.1-.9-2.1-2.1s.9-2.1 2.1-2.1 2.1.9 2.1 2.1-.9 2.1-2.1 2.1z"/><circle class="st2" cx="446.3" cy="195.3" r="2.1"/><circle class="st2" cx="446.3" cy="212.2" r="2.1"/><circle class="st2" cx="395.5" cy="212.2" r="2.1"/><path class="st2" d="M378.5 214.4c1.2 0 2.1-.9 2.1-2.1s-.9-2.1-2.1-2.1-2.1.9-2.1 2.1.9 2.1 2.1 2.1zm67.8 16.8c-1.2 0-2.1-.9-2.1-2.1s.9-2.1 2.1-2.1 2.1.9 2.1 2.1-.9 2.1-2.1 2.1zm16.9-33.8c-1.2 0-2.1-.9-2.1-2.1s.9-2.1 2.1-2.1 2.1.9 2.1 2.1c0 1.2-.9 2.1-2.1 2.1zm0 17c-1.2 0-2.1-.9-2.1-2.1s.9-2.1 2.1-2.1 2.1.9 2.1 2.1-.9 2.1-2.1 2.1zm0 16.8c-1.2 0-2.1-.9-2.1-2.1s.9-2.1 2.1-2.1 2.1.9 2.1 2.1-.9 2.1-2.1 2.1zm16.9-33.8c-1.2 0-2.1-.9-2.1-2.1s.9-2.1 2.1-2.1 2.1.9 2.1 2.1c.1 1.2-.9 2.1-2.1 2.1zm0 17c-1.2 0-2.1-.9-2.1-2.1s.9-2.1 2.1-2.1 2.1.9 2.1 2.1-.9 2.1-2.1 2.1zm0 16.8c-1.2 0-2.1-.9-2.1-2.1s.9-2.1 2.1-2.1 2.1.9 2.1 2.1-.9 2.1-2.1 2.1zm0 17c-1.2 0-2.1-.9-2.1-2.1s.9-2.1 2.1-2.1 2.1.9 2.1 2.1c.1 1.1-.9 2.1-2.1 2.1zm33.9-17c1.2 0 2.1-.9 2.1-2.1s-.9-2.1-2.1-2.1c-1.2 0-2.1.9-2.1 2.1s.9 2.1 2.1 2.1zm0 29.6c1.2 0 2.1.9 2.1 2.1s-.9 2.1-2.1 2.1c-1.2 0-2.1-.9-2.1-2.1-.1-1.1.9-2.1 2.1-2.1zm0-12.6c1.2 0 2.1-.9 2.1-2.1s-.9-2.1-2.1-2.1c-1.2 0-2.1.9-2.1 2.1-.1 1.1.9 2.1 2.1 2.1z"/><circle class="st2" cx="497.1" cy="212.2" r="2.1"/><path class="st2" d="M497.1 231.2c-1.2 0-2.1-.9-2.1-2.1s.9-2.1 2.1-2.1 2.1.9 2.1 2.1-1 2.1-2.1 2.1z"/><circle class="st2" cx="497.1" cy="246" r="2.1"/><circle class="st2" cx="497.1" cy="263" r="2.1"/><circle class="st2" cx="530.9" cy="263" r="2.1"/><path class="st3" d="M1378.5 381.9c-2.8-2.1-4.4-13.5 1-24.3 5.4-10.9 13.9-7.5 15.2-6.4 3.6 3.2 2.7 8.9 4 10.2s2.6 1.4 3.1 4.6c.5 3.1.1 8.9-4.5 12.7-6.2 4.9-13.9 6.8-18.8 3.2z"/><path class="st4" d="M1387.2 340c1.3-8.1 14.2-15.2 10.3-27.5-4.8-15.3-17.7-7.6-21.9-17-2.2-4.8 0-8.5-.1-16.2-.1-7.8-7.9-13.4-19.3-5.9s-6 22.8-8 29c-2 6.1-9.9 12.6-10.9 24s4.7 11.6 5.7 16.5c1 4.8-1.6 12 1.6 16.7 3.2 4.6 9.3 10.8 20.9 10.5 10.3-.2 16.7-6 20.2-11.9 3.5-6.1.3-10.5 1.5-18.2zm-28.9 17.9c-1.8 2.4-5.7 3.7-7.1 2.3-1.4-1.3-.5-5.4 2-7.3 1.6-1.2 4.5-2 5.8-.7 1.3 1.4.4 4.2-.7 5.7zm18.9-34.3c-2-1.6-1.4-6.1.6-8.7 2.1-2.8 6.6-4.6 8.8-2.9 2 1.6 1.4 6-.5 8.6-2.3 3-6.8 4.8-8.9 3z"/><path class="st2" d="M1390.2 364.9l-1-.7-18.3 27.4c0-3.3.1-6.7.1-10.1.1-8.4.2-16.2-.2-21.7-.2-2.8-.6-5.4-1-8l6.3-11.8-1.1-.6-5.6 10.5c-.6-2.9-1.3-5.9-2-8.9-2.5-10.3-5.2-21.9-4.5-39.9h-1.2c-.4 9.6.2 17.4 1.2 24.1l-6.9-5.7-.8.9 8 6.6c.9 5.3 2 10 3.1 14.4 1.5 6.3 2.9 12.1 3.4 18.7.4 5.4.3 13.3.2 21.6-.1 4-.1 8-.1 11.8 0 6.3.2 11.8.8 15.4l1.2-.4c-.6-3.4-.8-8.7-.8-14.7l19.2-28.9zM1635.7 430.7l-1.2-.2c.3-1.6.9-7.3-2.9-12.1-2.1-2.6-4.6-3.9-6.4-4.6l.4-1.1c1.9.7 4.7 2.1 6.9 5 4.2 5.1 3.5 11.2 3.2 13z"/><circle class="st4" cx="1625.4" cy="413.3" r="3.3"/><path class="st2" d="M1639.9 430.7l-1.2-.1c.6-6.2.3-12.4-.9-18.5-1.2-5.8-3.3-11.5-6.2-16.7l1-.6c3 5.4 5.1 11.1 6.3 17.1 1.3 6.1 1.6 12.4 1 18.8z"/><circle class="st1" cx="1632" cy="395" r="3.3"/><path class="st2" d="M1643.5 430.7c-.6-3.6-1.5-12.7 4.3-20.6 1.8-2.5 4.2-4.7 6.9-6.3l.6 1c-2.6 1.6-4.8 3.6-6.5 6-5.5 7.5-4.7 16.3-4.1 19.7l-1.2.2z"/><path class="st4" d="M1651.7 404.2c0-1.8 1.4-3.3 3.3-3.3 1.8 0 3.3 1.4 3.3 3.3 0 1.8-1.4 3.3-3.3 3.3s-3.3-1.5-3.3-3.3zM395.4 114c5.7-1.1 9.6-2.7 9.6-4.7 0-2.3-8.4-18.7-15.9-31.3 4.9-.7 8.4-2 8.4-3.6 0-2.7-16.6-33.3-19.3-33.3-3.5 0-20.5 30.4-19.2 34.4.4 1.2 3.2 2.1 7.3 2.6-7.7 12.7-15.8 29.4-14.7 32.8.5 1.6 4.5 2.8 10.2 3.6-8.1 14.1-16 29.8-16 32.2 0 4.6 16.4 7.4 32.4 7.4s31.1-1.8 32.2-5.5c1.2-3.6-6.6-20.2-15-34.6z"/><path class="st1" d="M386.9 96.7l-.9-.8-7.2 7.2v-40h-1.2v75.3l-8.2-8.1-.8.8 9 9v37h1.2v-72.3l8.1-8.1z"/><path class="st4" d="M1684.8 81c-3.9 3.3-7.8 7.1-9.7 11.9-2.5 6.3-.6 10.3 2 15.9 5.2 11-11 20.1-4.4 31 2.2 3.7 8.1 4.3 8.3 8.7.2 4.6-5.5 9.7-6.2 14.7-1.6 12.3 10.9 17.6 21.3 15.4 10.5-2.2 20.8-9.6 27.6-17.9 3.1-3.8 6.4-8.6 7.2-13.6 1.1-7.3-3.7-8.2-6.3-13.7-4.4-9.3 8.5-21.1.1-29.3-3.6-3.6-6.9-2.8-7.8-8.6-1-6.5 3.8-11.6.4-17.3-6.6-10.8-25.7-3-32.5 2.8z"/><path class="st1" d="M1718 148.7l-.6-1-15.8 9.7V96h-1.2v41.1l-14.8-5.3-.4 1.1 15.2 5.5v68.4h1.2v-48l16.4-10.1z"/><path class="st3" d="M450.1 390.5c-3.7 3.2-7.5 6.8-9.3 11.4-2.4 6-.6 9.8 1.9 15.2 5 10.5-10.5 19.2-4.2 29.6 2.1 3.5 7.7 4.1 7.9 8.3.2 4.4-5.3 9.3-5.9 14-1.5 11.7 10.4 16.8 20.3 14.7 10-2.1 19.9-9.2 26.4-17.1 3-3.6 6.1-8.2 6.9-13 1.1-7-3.5-7.8-6-13.1-4.2-8.9 8.1-20.2.1-28-3.4-3.4-6.6-2.7-7.5-8.2-1-6.2 3.6-11.1.4-16.5-6.3-10.3-24.5-2.8-31 2.7z"/><path class="st1" d="M481.9 455.1l-.6-.9-15.2 9.3v-58.7H465v39.3l-14.1-5.1-.4 1.1 14.5 5.2v65.4h1.1v-45.8zM195.4 435.7c-4.6-3.8-5-9.6-4.5-12.7.5-3.2 1.8-3.3 3.1-4.6s.4-7 4-10.2c1.3-1.1 9.8-4.5 15.2 6.4 5.4 10.8 3.8 22.2 1 24.3-4.9 3.6-12.6 1.7-18.8-3.2z"/><path class="st3" d="M207 415.2c3.5 5.9 9.9 11.7 20.2 11.9 11.6.3 17.7-5.9 20.9-10.5 3.2-4.7.6-11.9 1.6-16.7 1-4.9 6.7-5.1 5.7-16.5s-8.9-17.9-10.9-24c-2-6.2 3.4-21.5-8-29s-19.2-1.9-19.3 5.9c-.1 7.7 2.1 11.4-.1 16.2-4.2 9.4-17.1 1.7-21.9 17-3.9 12.3 9 19.4 10.3 27.5 1.2 7.7-2 12.1 1.5 18.2zm26.7-6c1.3-1.3 4.2-.5 5.8.7 2.5 1.9 3.4 6 2 7.3-1.4 1.4-5.3.1-7.1-2.3-1.1-1.5-2-4.3-.7-5.7zm-27.1-31.6c-1.9-2.6-2.5-7-.5-8.6 2.2-1.7 6.7.1 8.8 2.9 2 2.6 2.6 7.1.6 8.7-2.1 1.8-6.6 0-8.9-3z"/><path class="st2" d="M221 465.5c1-5.6.8-16.5.7-27-.1-8.4-.2-16.2.2-21.7.5-6.7 1.9-12.5 3.4-18.8 2.5-10.3 5.2-21.9 4.5-39.9h1.2c.8 18.2-2 30-4.5 40.3-1.5 6.3-2.9 12.1-3.4 18.7-.4 5.4-.3 13.3-.2 21.6.2 10.6.3 21.5-.7 27.2l-1.2-.4z"/><path class="st2" d="M202.4 421.8l1-.7 19.5 29.3-1 .7-19.5-29.3zm14.3-24.8l1.1-.6 6.4 12-1.1.6-6.4-12zm11.9-13.9l8.1-6.7.8.9-8.1 6.7-.8-.9z"/><path class="st1" d="M667.3 469c4.9-.9 8.2-2.3 8.2-4.1 0-2-7.2-16.1-13.7-26.9 4.2-.6 7.2-1.7 7.2-3.1 0-2.3-14.3-28.6-16.6-28.6-3 0-17.6 26.2-16.5 29.6.3 1 2.8 1.8 6.2 2.2-6.6 10.9-13.6 25.2-12.6 28.2.4 1.4 3.9 2.4 8.7 3.1-6.9 12.2-13.8 25.7-13.8 27.7 0 4 14.1 6.3 27.8 6.3 13.8 0 26.7-1.6 27.7-4.7 1.3-3-5.4-17.2-12.6-29.7z"/><path class="st3" d="M659.8 454.1l-.7-.7-6.1 6.2v-34.4h-1v64.9l-7.1-7.1-.7.7 7.8 7.8v31.7h1V461z"/><path class="st0" d="M1680.9 227.5c-2.9 0-29.7 93.1-27 96.3s13.8 7.4 26.6 7.4 24.2-6.1 25.1-8.5-20.1-95.2-24.7-95.2z"/><path class="st2" d="M1690.8 301l-9.8 9.9v-53.5h-1.2v36.7l-9.8-9.8-.8.8 10.6 10.7v5.7l-9.8-9.8-.9.9 10.7 10.6v41.3h1.2v-31.9l10.7-10.7-.9-.9z"/><path class="st0" d="M323.1 384.4c-2.9 0-29.7 93.1-27 96.3s13.8 7.4 26.6 7.4 24.2-6.1 25.1-8.5-20.1-95.2-24.7-95.2z"/><path class="st1" d="M333.9 458.8l-.8-.9-9.9 9.9v-53.5H322V451l-9.8-9.8-.8.8 10.6 10.7v5.7l-9.8-9.8-.8.9 10.6 10.6v41.3h1.2v-31.9l10.7-10.7z"/><path class="st0" d="M86.4 406.7c-3.2 2.7-6.5 5.9-8 9.8-2.1 5.2-.5 8.5 1.7 13.2 4.3 9.1-9.1 16.6-3.6 25.6 1.8 3.1 6.7 3.6 6.9 7.2.2 3.8-4.5 8-5.1 12.2-1.3 10.2 9 14.6 17.6 12.7 8.7-1.8 17.2-7.9 22.8-14.8 2.6-3.1 5.3-7.1 6-11.2.9-6-3.1-6.8-5.2-11.3-3.6-7.7 7-17.5.1-24.2-3-3-5.7-2.3-6.5-7.1-.8-5.4 3.1-9.6.3-14.3-5.6-9-21.4-2.6-27 2.2z"/><path class="st1" d="M113.9 462.7l-.5-.9-13.1 8.2v-50.9h-1v34l-12.2-4.4-.4 1 12.6 4.5v56.6h1v-39.7l13.6-8.4z"/><path class="st3" d="M71 363.9c-2.8-2.1-4.4-13.5 1-24.3 5.4-10.9 13.9-7.5 15.2-6.4 3.6 3.2 2.7 8.9 4 10.2s2.6 1.4 3.1 4.6c.5 3.1.1 8.9-4.5 12.7-6.2 4.9-13.9 6.8-18.8 3.2z"/><path class="st1" d="M79.7 322c1.3-8.1 14.2-15.2 10.3-27.5-4.8-15.3-17.7-7.6-21.9-17-2.2-4.8 0-8.5-.1-16.2-.1-7.8-7.9-13.4-19.3-5.9s-6 22.8-8 29c-2 6.1-9.9 12.6-10.9 24s4.7 11.6 5.7 16.5c1 4.8-1.6 12 1.6 16.7 3.2 4.6 9.3 10.8 20.9 10.5 10.3-.2 16.7-6 20.2-11.9 3.5-6.1.3-10.5 1.5-18.2zm-28.9 17.9c-1.8 2.4-5.7 3.7-7.1 2.3-1.4-1.3-.5-5.4 2-7.3 1.6-1.2 4.5-2 5.8-.7 1.3 1.4.4 4.2-.7 5.7zm18.9-34.3c-2-1.6-1.4-6.1.6-8.7 2.1-2.8 6.6-4.6 8.8-2.9 2 1.6 1.4 6-.5 8.6-2.3 3-6.8 4.8-8.9 3z"/><path class="st2" d="M63 390.9c-1-5.7-.9-16.6-.7-27.2.1-8.3.2-16.2-.2-21.6-.5-6.6-1.9-12.4-3.4-18.7-2.5-10.3-5.3-22.1-4.5-40.3h1.2c-.7 18 2 29.6 4.5 39.9 1.5 6.3 2.9 12.1 3.4 18.8.4 5.5.3 13.3.2 21.7-.1 10.5-.3 21.4.7 27l-1.2.4z"/><path class="st2" d="M62.4 375.6l19.5-29.3 1 .7-19.5 29.3-1-.7zM61 333.4l6.4-12 1.1.6-6.4 12-1.1-.6zm-13.2-31l.8-.9 8.1 6.7-.8.9-8.1-6.7z"/><path class="st3" d="M82.7 118.7l7.8-7c-2.9-16.1-8.2-36.8-17.1-57.8-5 11.3-8.9 22.9-11.8 33.7l7.8 8.5-9.4-2.3c-5.2 21.4-7 39.4-7 46.5 0 11.3 9.1 23.3 20.3 23.3s20.3-12 20.3-23.3c0-4.3-.5-12.3-2.2-22.6l-8.7 1z"/><path class="st1" d="M84.5 139.1l-.6-1-10.2 6.2 1-63.9h-1.1l-.6 37.3-9.8-7.2-.6.9 10.3 7.5.1-.1-.1 6-11.8-8.6-.7.9 12.5 9.1-.9 58.5h1.1l.6-39.1 10.8-6.5z"/><path class="st4" d="M1847.2 353.4c-3.8-3.1-4.1-7.9-3.7-10.5s1.5-2.7 2.6-3.8c1.1-1.1.3-5.8 3.3-8.4 1.1-.9 8.1-3.7 12.6 5.3 4.5 8.9 3.1 18.4.8 20.1-4.1 2.9-10.4 1.3-15.6-2.7z"/><path class="st0" d="M1856.8 336.4c2.9 4.9 8.2 9.7 16.7 9.8 9.6.2 14.6-4.9 17.3-8.7 2.6-3.9.5-9.8 1.3-13.8.8-4.1 5.5-4.2 4.7-13.6s-7.4-14.8-9-19.8c-1.7-5.1 2.8-17.8-6.6-24s-15.9-1.6-16 4.9c-.1 6.4 1.7 9.4-.1 13.4-3.5 7.8-14.1 1.4-18.1 14.1-3.2 10.2 7.4 16 8.5 22.7 1.1 6.3-1.6 10 1.3 15zm22.1-4.9c1.1-1.1 3.5-.4 4.8.6 2.1 1.6 2.8 5 1.7 6-1.2 1.2-4.4.1-5.9-1.9-.9-1.3-1.7-3.6-.6-4.7zm-22.4-26.2c-1.6-2.1-2.1-5.8-.4-7.1 1.8-1.4 5.5.1 7.3 2.4 1.7 2.1 2.1 5.9.5 7.2-1.8 1.5-5.5 0-7.4-2.5z"/><path class="st2" d="M1853.1 342l.8-.6L1869 364c0-2.7 0-5.6-.1-8.4-.1-6.9-.2-13.4.2-17.9.2-2.3.5-4.5.9-6.6l-5.2-9.8.9-.5 4.6 8.7c.5-2.4 1.1-4.8 1.7-7.3 2.1-8.5 4.3-18.1 3.7-33h1c.3 7.9-.1 14.3-1 19.9l5.7-4.7.6.8-6.6 5.4c-.7 4.4-1.6 8.3-2.5 11.9-1.2 5.2-2.4 10-2.8 15.5-.3 4.5-.2 11-.2 17.9.1 3.3.1 6.6.1 9.7 0 5.2-.2 9.8-.7 12.7l-1-.3c.5-2.8.6-7.2.6-12.2l-15.8-23.8z"/><path class="st3" d="M1565.2 102.9c-3.6 3.1-7.3 6.6-9 11.1-2.3 5.9-.6 9.6 1.9 14.8 4.9 10.3-10.3 18.8-4.1 28.9 2.1 3.5 7.6 4 7.7 8.1.2 4.3-5.1 9-5.8 13.7-1.5 11.5 10.2 16.4 19.9 14.4 9.8-2.1 19.4-9 25.7-16.7 2.9-3.5 6-8 6.7-12.7 1-6.8-3.5-7.6-5.9-12.8-4.1-8.7 7.9-19.7.1-27.3-3.4-3.4-6.4-2.6-7.3-8-.9-6.1 3.5-10.8.4-16.1-6.1-10-24-2.8-30.3 2.6z"/><path class="st1" d="M1596.2 166.1l-.6-1-14.7 9.1v-57.3h-1.2v38.4l-13.7-5-.4 1.1 14.1 5.1v63.8h1.2v-44.7l15.3-9.5z"/><path class="st4" d="M1591.1 401.4c-2.9 0-29.7 93.1-27 96.3s13.8 7.4 26.6 7.4 24.2-6.1 25.1-8.5-20.1-95.2-24.7-95.2z"/><path class="st1" d="M1601.9 475.8l-.9-.9-9.8 9.9v-53.5h-1.2V468l-9.8-9.8-.8.8 10.6 10.7v5.7l-9.8-9.8-.8.9 10.6 10.6v41.3h1.2v-31.9l10.7-10.7z"/><path class="st0" d="M1900.5 113.3c1.7 23.1-14.1 31.7-31.7 31.7-17.5 0-31.7-8.3-31.7-31.7 0-22.6 14.1-31.7 31.7-31.7s30.4 10.6 31.7 31.7zm-.5 39.8c.4 6.7-4.7 10.4-10.4 10.4s-11-4.7-10.4-10.4c.8-7.4 4.7-10.4 10.4-10.4 5.9 0 10 4.7 10.4 10.4z"/><path class="st1" d="M1869.5 104.9v60.5l19.9-12.8.6 1-20.5 13.1v19.8h-1.1v-81.6h1.1z"/><path class="st0" d="M1891.5 466.7c5.3-1 8.9-2.5 8.9-4.4 0-2.1-7.8-17.4-14.8-29.1 4.5-.7 7.8-1.9 7.8-3.4 0-2.5-15.5-31-18-31-3.3 0-19.1 28.3-17.9 32.1.4 1.1 3 1.9 6.8 2.4-7.2 11.8-14.7 27.3-13.7 30.5.5 1.5 4.2 2.7 9.5 3.3-7.5 13.2-14.9 27.8-14.9 30 0 4.3 15.3 6.9 30.2 6.9 14.9 0 29-1.7 30-5.1 1.1-3.4-6.1-18.8-13.9-32.2z"/><path class="st1" d="M1883.5 450.6l-.8-.8-6.7 6.7v-37.3h-1.1v70.2l-7.6-7.6-.8.8 8.4 8.4v34.5h1.1v-67.4l7.5-7.5z"/><path class="st0" d="M1308.5 388.6c-2.9 0-29.7 93.1-27 96.3s13.8 7.4 26.6 7.4 24.2-6.1 25.1-8.5-20.1-95.2-24.7-95.2z"/><path class="st2" d="M1318.4 462.2l-9.8 9.8v-53.5h-1.2v36.7l-9.8-9.8-.8.9 10.6 10.6v5.7l-9.8-9.8-.9.9 10.7 10.6v41.3h1.2v-31.9l10.7-10.7-.9-.8zM127.6 178.6c.9-5.5 3-10.8 6.1-15.4l1 .6c-3 4.4-5 9.6-5.9 14.9-.9 5.3-.6 10.9.8 16.1l-1.1.3c-1.5-5.4-1.8-11.2-.9-16.5z"/><path class="st1" d="M134.3 166.6c1.9 0 3.3-1.4 3.3-3.3s-1.4-3.3-3.3-3.3-3.3 1.5-3.3 3.3c0 1.9 1.4 3.3 3.3 3.3z"/><path class="st2" d="M110.7 182.7c-2.1-3-5.1-4.2-6.4-4.6l.4-1.1c1.3.5 4.7 1.7 7 5 2.7 3.8 3.1 6.9 3.1 12.9h-1.2c0-5.8-.4-8.7-2.9-12.2z"/><path class="st4" d="M104.6 180.9c1.9 0 3.3-1.4 3.3-3.3s-1.5-3.3-3.3-3.3c-1.9 0-3.3 1.5-3.3 3.3s1.5 3.2 3.3 3.3z"/><path class="st2" d="M120 183.7c.3-4.7.9-9.3 1.8-13.9l1.2.2c-1 4.5-1.6 9.1-1.8 13.7-.2 3.8-.2 7.6 0 11.3H120c-.3-3.8-.3-7.7 0-11.3z"/><path class="st1" d="M122.4 173.1c1.9 0 3.3-1.4 3.3-3.3s-1.5-3.3-3.3-3.3c-1.9 0-3.3 1.5-3.3 3.3s1.4 3.3 3.3 3.3z"/><path class="st2" d="M1636.4 242c.3-1.6.9-7.3-2.9-12.1-2.1-2.6-4.7-4-6.5-4.6l.4-1.1c1.9.7 4.7 2.2 6.9 5 4.1 5.2 3.4 11.3 3.1 13l-1-.2z"/><path class="st0" d="M1627.1 228c1.9 0 3.3-1.5 3.3-3.3 0-1.9-1.5-3.3-3.3-3.3-1.9 0-3.3 1.5-3.3 3.3 0 1.9 1.5 3.3 3.3 3.3z"/><path class="st2" d="M1640.4 242.1c.7-6.2.4-12.4-.9-18.5-1.2-5.9-3.3-11.5-6.2-16.8l1-.6c3 5.3 5.2 11.1 6.4 17.1 1.2 6.2 1.5 12.6.9 18.9l-1.2-.1z"/><path class="st0" d="M1633.7 209.8c1.9 0 3.3-1.5 3.3-3.3 0-1.9-1.5-3.3-3.3-3.3-1.9 0-3.3 1.5-3.3 3.3s1.5 3.2 3.3 3.3z"/><path class="st2" d="M1649.5 221.6c1.8-2.6 4.2-4.7 6.9-6.4l.6 1c-2.5 1.7-4.8 3.7-6.5 6.1-5.5 7.5-4.7 16.3-4.1 19.7l-1.2.2c-.7-3.6-1.6-12.8 4.3-20.6z"/><circle class="st4" cx="1656.7" cy="215.7" r="3.3"/><path class="st4" d="M208 75.3c1.8 25.8-15.8 35.4-35.4 35.4s-35.4-9.3-35.4-35.4c0-25.2 15.8-35.4 35.4-35.4s33.8 11.8 35.4 35.4zM207.4 119.7c.5 7.5-5.2 11.6-11.6 11.6s-12.3-5.2-11.6-11.6c.9-8.2 5.2-11.6 11.6-11.6 6.5 0 11.1 5.1 11.6 11.6z"/><path class="st1" d="M196.2 120.2l-.6-1-22.2 14.2V88.6h-1.2v68.2h1.2v-22l22.8-14.6zM166.5 62.4c-.3 0-.7-.2-.7-.6-.3-1.5-1.9-3-4.3-3s-4 1.5-4.3 3c-.1.4-.5.7-.9.6-.4-.1-.7-.5-.6-.9.5-2.1 2.6-4.2 5.8-4.2s5.3 2.1 5.8 4.2c.1.4-.2.8-.6.9h-.2zM189 62.4c-.3 0-.7-.2-.7-.6-.3-1.5-1.9-3-4.3-3s-4 1.5-4.3 3c-.1.4-.5.7-.9.6-.4-.1-.7-.5-.6-.9.5-2.1 2.6-4.2 5.8-4.2s5.3 2.1 5.8 4.2c.1.4-.2.8-.6.9h-.2z"/><ellipse class="st5" cx="188.6" cy="68.2" rx="3.9" ry="2.1"/><ellipse class="st5" cx="156.8" cy="68.2" rx="3.9" ry="2.1"/><path class="st1" d="M179.6 74.1c.9 0 1.6.8 1.4 1.7-.8 3.9-4.2 6.8-8.3 6.8s-7.5-2.9-8.3-6.8c-.2-.9.5-1.7 1.4-1.7h13.8z"/><path class="st5" d="M177.2 81.3c-1.3.8-2.9 1.3-4.5 1.3-1.7 0-3.2-.5-4.5-1.3.6-1.6 2.4-2.8 4.5-2.8s3.9 1.2 4.5 2.8z"/><path class="st6" d="M178.9 13h-12.3c-1.6 0-2.8 1.3-2.8 2.8v7.5c0 1.6 1.3 2.8 2.8 2.8h3.4c.2 0 .4.1.5.3l2 3.6c.1.2.5.2.6 0l2-3.6c.1-.2.3-.3.5-.3h3.4c1.6 0 2.8-1.3 2.8-2.8v-7.5c-.1-1.5-1.4-2.8-2.9-2.8z"/><path class="st2" d="M176.2 16.5c-1.2-.7-2.8-.3-3.5.9-.7-1.2-2.3-1.6-3.5-.9s-1.6 2.3-.9 3.5c.6 1 3 3.3 4.4 3.5 1.4-.1 3.8-2.4 4.4-3.5.7-1.2.3-2.8-.9-3.5z"/><path class="st3" d="M204.7 218.7c19.7 0 35.4 10.1 35.4 35.4 0 26.1-15.9 35.4-35.4 35.4-19.7 0-37.3-9.6-35.4-35.4 1.4-23.6 15.7-35.4 35.4-35.4zM181.5 286.9c6.4 0 10.7 3.3 11.6 11.6.7 6.4-5.3 11.6-11.6 11.6-6.4 0-12.1-4.1-11.6-11.6.4-6.3 5-11.6 11.6-11.6z"/><path class="st1" d="M203.9 277.7v34.5L181.6 298l-.7 1 22.9 14.6v22.3h1.3v-58.1l-1.2-.1z"/><circle class="st2" cx="196.2" cy="246.8" r="6.8"/><path class="st1" d="M199.6 252.7c.8-.9 1.2-2.2 1.2-3.5 0-2.9-2.1-5.3-4.6-5.3-2.6 0-4.6 2.4-4.6 5.3 0 1.4.5 2.6 1.2 3.5 1 .6 2.2.9 3.4.9s2.4-.3 3.4-.9z"/><circle class="st2" cx="214.4" cy="246.8" r="6.8"/><path class="st1" d="M217.8 252.7c.8-.9 1.2-2.2 1.2-3.5 0-2.9-2.1-5.3-4.6-5.3-2.6 0-4.6 2.4-4.6 5.3 0 1.4.5 2.6 1.2 3.5 1 .6 2.2.9 3.4.9s2.4-.3 3.4-.9z"/><ellipse class="st5" cx="187.9" cy="256.7" rx="3.2" ry="1.9"/><ellipse class="st5" cx="221.3" cy="256.7" rx="3.2" ry="1.9"/><circle class="st2" cx="194.2" cy="245.5" r="1.1"/><circle class="st2" cx="212.3" cy="245.5" r="1.1"/><path class="st1" d="M212.7 259.8c.2 0 .3.1.5.2.3.3.4.7.1 1.1-.1.2-3.5 4.3-8.3 4.3s-8.2-4.1-8.3-4.3c-.3-.3-.2-.8.1-1.1.3-.3.8-.2 1.1.1 0 0 3.1 3.7 7.1 3.7 4.1 0 7.1-3.7 7.1-3.7.2-.2.4-.3.6-.3zM306.2 273c-2.6 0-26.5 83.1-24.1 85.9s12.3 6.6 23.7 6.6c11.4 0 21.6-5.4 22.4-7.6.7-2.2-17.9-84.9-22-84.9z"/><path class="st3" d="M315.9 339.3l-.8-.7-8.7 8.8v-47.7h-1.1v32.7l-8.7-8.6-.7.7 9.5 9.5v5.2l-8.7-8.8-.8.7 9.5 9.5v36.8h1.1v-28.5l9.4-9.6z"/><path class="st6" d="M312.1 251.6h-12.3c-1.6 0-2.8 1.3-2.8 2.8v7.5c0 1.6 1.3 2.8 2.8 2.8h3.4c.2 0 .4.1.5.3l2 3.6c.1.2.5.2.6 0l2-3.6c.1-.2.3-.3.5-.3h3.4c1.6 0 2.8-1.3 2.8-2.8v-7.5c-.1-1.6-1.3-2.8-2.9-2.8z"/><path class="st2" d="M309.5 255.1c-1.2-.7-2.8-.3-3.5.9-.7-1.2-2.3-1.6-3.5-.9s-1.6 2.3-.9 3.5c.6 1 3 3.3 4.4 3.5 1.4-.1 3.8-2.4 4.4-3.5.7-1.2.3-2.8-.9-3.5z"/><path class="st6" d="M571.6 70.7h-12.3c-1.6 0-2.8 1.3-2.8 2.8V81c0 1.6 1.3 2.8 2.8 2.8h3.4c.2 0 .4.1.5.3l2 3.6c.1.2.5.2.6 0l2-3.6c.1-.2.3-.3.5-.3h3.4c1.6 0 2.8-1.3 2.8-2.8v-7.5c-.1-1.6-1.4-2.8-2.9-2.8z"/><path class="st2" d="M568.9 74.2c-1.2-.7-2.8-.3-3.5.9-.7-1.2-2.3-1.6-3.5-.9s-1.6 2.3-.9 3.5c.6 1 3 3.3 4.4 3.5 1.4-.1 3.8-2.4 4.4-3.5.7-1.2.3-2.8-.9-3.5z"/><path class="st0" d="M574.7 155.8l7.6-6.9c-2.9-15.8-8.1-36.1-16.8-56.7-4.9 11.1-8.8 22.5-11.6 33.1l7.6 8.3-9.2-2.3c-5.1 21-6.9 38.7-6.9 45.6 0 11.1 8.9 22.9 19.9 22.9s19.9-11.7 19.9-22.8c0-4.2-.5-12.1-2.2-22.2l-8.3 1z"/><path class="st1" d="M576.4 175.9l-.6-1-10 6.1 1-62.7h-1.1l-.6 36.6-9.6-7-.6.8 10.1 7.4.1-.1-.1 5.9-11.6-8.5-.7.8 12.2 9-.9 57.4h1.1l.6-38.4 10.7-6.3z"/><path class="st2" d="M612.7 298.2c.6-3.9 2.1-7.7 4.3-11l.7.4c-2.1 3.1-3.6 6.8-4.2 10.6s-.4 7.8.6 11.5l-.8.2c-1-3.8-1.3-8-.6-11.7z"/><path class="st1" d="M617.5 289.6c1.4 0 2.4-1 2.4-2.4s-1-2.4-2.4-2.4-2.4 1.1-2.4 2.4c0 1.4 1 2.4 2.4 2.4z"/><path class="st2" d="M600.6 301.1c-1.5-2.1-3.6-3-4.6-3.3l.3-.8c.9.4 3.3 1.2 5 3.6 1.9 2.7 2.2 4.9 2.2 9.2h-.9c.1-4.2-.2-6.2-2-8.7z"/><path class="st4" d="M596.3 299.8c1.4 0 2.4-1 2.4-2.4s-1.1-2.4-2.4-2.4c-1.4 0-2.4 1.1-2.4 2.4s1.1 2.3 2.4 2.4z"/><path class="st2" d="M607.3 301.8c.2-3.3.6-6.6 1.3-9.9l.9.1c-.7 3.2-1.1 6.5-1.3 9.8-.1 2.7-.1 5.4 0 8.1h-.9c-.2-2.8-.2-5.5 0-8.1z"/><path class="st1" d="M609 294.2c1.4 0 2.4-1 2.4-2.4s-1.1-2.4-2.4-2.4c-1.4 0-2.4 1.1-2.4 2.4s1 2.4 2.4 2.4z"/><path class="st7" d="M399 313.1c-1.4-1.1-2.1-1.7-2.8-3.4-.7-1.7-.4-4.8-.4-4.8-1.1.2-6.5-1.5-6.5-1.5l1.8 13.3 9.6.1c.1-.1-.3-2.6-1.7-3.7z"/><path class="st8" d="M407 248.9c.5-5-2.7-11.2-5.3-13.3-2.6-2.1-10.8-.8-10.8-.8s-13.5 10.8-17.2 10.1c-3.7-.8-5.6 1.6-6.1 3.5-.6 1.8-.7 5.7.6 9 1.3 3.2 3.5 3.8 3.4 6.9s-3.4 7.4-3.4 7.4 6.6 5.8 16.2 7c9.6 1.1 16.5-3.4 16.5-3.4s-.3-2.1-.4-4.8c-.1-2.6.1-2.9.4-6.6 4.8 5.4 11.5 5.3 11.5 5.3l-1.8-6.7c-2.8-2.5-4.1-8.6-3.6-13.6z"/><path class="st3" d="M412.6 282.8c-3.7-3.1-10.7-5.6-10.7-5.6l-1.1-1.9c-4.4 1-8.3 0-8.3 0s.3-3.7.2-4.9c-.1-1.2-1-5.4-5.4-6.8-4.4-1.3-7.7 1.5-9.1 2.9-1.4 1.3-4 6-4.9 7.5-3.5 0-5-2.2-5-2.2s-2.6 4.2-3.1 7.3c-.7 4.3.2 11.1 3.9 13.7 3.7 2.5 9.8 2.3 9.8 2.3s2.5 7.9 3.9 10.2c2.9.3 6.5-.3 7.5-1.2 3.1 1.3 5.6.8 5.6.8s14.2-2.8 16.8-3.2c2.6-.4 3.5-.6 6.3-2.3 2.8-1.7 2.7-4.2 1.9-8.2-.8-4.3-4.5-5.4-8.3-8.4z"/><path class="st1" d="M421.7 227.5c-.4-3.7-3-7.4-7.3-6.1s-4.1 8-4.1 8-3.6 2.6-4.1 7.4c-.5 4.6 1.4 10.4 12.2 11.9 0 0 6.3 1.4 12-2.6s10.4-13 5.3-18c-3.1-3.3-9.8-4.9-14-.6z"/><path class="st9" d="M387.4 218.5s-6.7-1-8.8 3.3c-2.1 4.3 1.4 19.5 1.4 19.5s5.3 2.2 7.4 2 3.7-1.7 4-3.4-.5-4.3-.5-4.3 1.7-1 2.5-1.8c1-1.1 1.2-2.4-.9-8.2-2.2-5.8-5.1-7.1-5.1-7.1z"/><path class="st1" d="M430.3 260.5h-19.8c-.9 0-1.5.8-1.3 1.6l3.5 17.9c.1.6.7 1.1 1.3 1.1h12.7c.6 0 1.2-.5 1.3-1.1l3.5-17.9c.3-.8-.4-1.6-1.2-1.6z"/><path class="st10" d="M381 214.5c-3.1.7-6.5.6-9.4 7.2-2.8 6.6 2.3 8.2-1.5 14.9s-2.5 11.8-2.5 11.8 1.7-2.4 4.9-2.7c3.2-.3 5.9 6.4 7.2 8.7 1.3 2.3 3.9 3.7 4.6 1.8.6-1.9 1-5.2-.9-8.1-2-2.9-2-4.9-1.3-8 .7-3.2-.9-4.3-.9-7.6s2-2.6 1.9-5.2c-.2-2.6-.6-4.6-.6-4.6s1.7.3 3.9-.8c2.1-1.1 2.8-4.2 2.8-4.2-2.9-2.5-5.5-3.9-8.2-3.2z"/><path class="st9" d="M425.7 280.8c-.6-.2-5.1.1-7.2.2-2.2.1-4.1.1-4.1.1s-.2.5.3-.7 1.9-3.7.7-3.6c-1.2.1-3.3 2.8-4.3 4.2s-3.6 1-6.4 0c-2.9-1-11.9-9.7-11.9-9.7 0 4.4-.9 9.5-.9 9.5s9.6 4.9 13 5.9 4.3 1.3 7 .6 3-1.8 5.1-2.8 5.8-.7 7.3-1.5c1.5-.7 2-2 1.4-2.2zM377.2 260.4c-1.9.8-6.3 1.2-6.3 1.2l5.9 6.7s2.3-2.7 4.2-3.8c1.9-1 5-1.2 5-1.2l-4.4-6.7c.1-.1-2.5 3-4.4 3.8z"/><path class="st11" d="M432.8 265.7s-2.6-1.1-3.9 0-1.6 3.4-1.5 4.8 2.7 2.5 4 2c1.3-.4 4-4.8 1.4-6.8z"/><path class="st2" d="M432 234.9c-.2-.2-.6-.3-.8-.1 0 0-1.4 1.2-3.2 2.7-.8-2.1-.7-4.1.2-6 .1-.3 0-.6-.3-.8-.3-.1-.6 0-.8.3-1.1 2.3-1.1 4.7-.1 7.3-1.2.9-2.4 1.8-3.6 2.6-1.8 1.1-2.6 2.9-3.1 4.4-.4-1-1-2.2-1.9-3.3.7-6.9 0-12-1.9-15.5-.2-.3-.5-.4-.8-.2s-.4.5-.2.8c1.7 3.1 2.3 7.6 1.8 13.7-1.8-1.8-3.8-2.9-4.8-3.5-.2-.1-.4-.2-.4-.3-.3-.2-.6-.1-.8.1-.2.3-.1.6.1.8.1.1.3.2.5.3.9.5 2.9 1.7 4.6 3.3 2.3 2.3 3.2 5.6 3.3 6.1V260.4h1.2v-11.7s-.3-4.9 2.9-7c3.6-2.3 7.9-6.1 8-6.1.3-.1.3-.5.1-.7z"/><path class="st12" d="M376.7 295h1.4c-.4 0-.9-.1-1.4 0 0-.1 0 0 0 0z"/><path class="st13" d="M377.4 283.8c.1-4.1.9-7.7-.3-7.7h-.3c-1.6.5-1.5 6.8-1.2 10.9.3 3.8.9 7.3 1 7.9.6 0 1 .1 1.4.1h.8c.1 0-1.5-6.8-1.4-11.2z"/><path class="st14" d="M371.2 273.6c.3.1.5.1.8.2l-.8-.2zM373.3 273.9z"/><path class="st13" d="M373.1 273.9c-.4 0-.7 0-1.1-.1-.3 0-.6-.1-.8-.2-.9 1.3-1.6 2.4-1.7 2.8-.3 1.1 0 2.2.7 2.2.2 0 .4-.1.7-.3.6-.5 2.4-4.4 2.4-4.4h-.2z"/><path class="st15" d="M391.9 304.5c-.4-.1-.8-.2-1.2-.4.8.3 1.2.4 1.2.4z"/><path class="st13" d="M403.5 291c-2.5 0-11.7 2.8-11.7 2.8s.7-9.4 1.9-12.1c-1.1-.6-1.9-.9-1.9-.9s-1.1 3.7-1.5 6.9c-.4 3.2-1.3 11.7 0 16.2.2.1.3.1.4.2.4.2.8.3 1.2.4 0 0-.9-5.8-.1-8.6 2.5-.5 8.5-2.6 12.2-2.6h1.2c2.8.1.7-2.3-1.7-2.3z"/><path class="st16" d="M393.7 281.8c-1.8-.9-1.9-.9-1.9-.9s.7.3 1.9.9z"/><path class="st1" d="M390.9 310.5c-.7-2.3-.6-6.5-.6-6.5-2.3 1.2-7.5 1.2-7.5 1.2s.7 3.5.6 5.8 0 5.7 0 5.7l9.3-.1s.1-.3 0-1.5c-.1-1-1.1-2.3-1.8-4.6z"/><path class="st12" d="M402.7 265.6z"/><path class="st14" d="M403.2 250c-1.1.1-.4 4.8-.2 8.2.2 3.5-2.1 5.6-2.1 5.6l1.8 1.8c.1-.2 1.9-6.2 1.9-8.2 0-2-.3-7.4-1.4-7.4z"/><path class="st11" d="M386.1 237.7c-1.7.2-2.1 2-.5 2.3s3.5.7 2.9 1.4c-.6.8-1.6.3-1.5 1.9 1.5 0 3.9-.5 4.4-3.4.3-1.7-.5-4.3-.5-4.3s-3.1 1.9-4.8 2.1z"/><path class="st17" d="M452.9 309.1c-5.2-.2-6.3 2.5-6.3 2.5s-1.2-10-11.1-9.6-17.2 6.8-19.5 14.6c4.8-.1 44.7 0 44.7 0s-2.6-7.3-7.8-7.5z"/><path class="st3" d="M534.4 304.8l-8.7.3v11.5h11.8s-.1-3.7-1.5-6.2c-1.5-2.6-1.6-5.6-1.6-5.6zM517.6 209.3l6.6-9.7s-9.6-11.3-14.9-12.9c-5.3-1.6-6.2-1.6-11.5 0-5.2 1.6-6.4 2.1-6.4 2.1s-13.6 10.9-15 17.2-2 10.6-.9 15c1.1 4.3 1.9 8.4 1.9 8.4s3.3 1.1 5.2.5c1.8-.6 3.9-1.7 3.9-1.7l-.5-5.8s4.1 3 4.7 6.6.3 11.4.3 11.4 3.6 2.7 14.8.9 19.6-6.7 19.6-6.7 0-7.6-3.4-14.2c-3.4-6.7-4.4-11.1-4.4-11.1z"/><path class="st18" d="M493 189.8c-1.6-1.4-3.5-1.7-3.5-1.7s-12.7-3.1-20.6 0c0 0 2.2 6 5.1 9.2 2.8 3.2 4.4 4.7 6.1 4.6s4.4-2.6 4.4-2.6.5 1.4 1.2 2.6c2.8 1 7.4-.9 8.3-4.4.8-3.5.6-6.3-1-7.7z"/><path class="st3" d="M490.8 304.7l-9.5-1.5-8.4 13.4h16.8v-5.3c0-1.6 1.1-6.6 1.1-6.6z"/><path class="st1" d="M530.9 274.9c-1.1-3.9-1.8-10-2.2-16.7s-3.2-23.7-3.2-23.7-17.2 5.6-23.2 6.2c-6 .6-11.2-.4-11.2-.4-.3 17.4-12.3 62-12.3 62s2.7 2.6 5.3 3.2 6.7-.9 6.7-.9.9-5 1.8-7.8 2.1-9.9 3.5-15.5 3.4-12.2 4.4-16.5c1.3-5.3 7.6-14 7.6-14s3.7 4.5 5.7 9.6c2 5.2 4.8 13.4 6.6 17.1s2.1 9.4 3.1 16.2c1 6.9 2.2 11.4 2.2 11.4s2.9.7 4.8.5c1.9-.1 3.9-.8 3.9-.8s-1.4-6.5-2.1-13.9c-.7-7.5-.2-12.1-1.4-16z"/><path class="st19" d="M500.1 226.2c-1.4-.1-3.4-.4-3.8 1.5 0 0 .5 1.3 1.6 1.7s2.4.4 2.6.4c.2 0 1-3.4-.4-3.6z"/><path class="st1" d="M488.2 185.5c-1.3-.6-1.4-3-2.4-5.5s-4.7-2.7-8.1-3.3c-3.4-.5-5.4 1.4-6 3.2-.6 1.9-3.2 1.9-4.9 3.6-1.7 1.7-.1 4.5 1.7 5.2s1.9.1 3.4-.8c1.6-.8 3.6-1.4 5.2.3 1.6 1.6 3.6 1.3 3.6 1.3s1.5-2.5 2.7-1.7 0 3.3 0 3.3 3.7 2.4 5.3 1.5c1.6-.9 2-4.3 2-4.3.4-1.2-1.2-2.2-2.5-2.8z"/><path class="st18" d="M491.9 260.7c-1.1-.9-3.4-2.4-3.8-5.3-.4-2.9-1.2-7.1-.9-10.8.3-3.7-.6-16.5-.6-16.5s-2.2 1.1-4.4 1.2c-2.3.1-4.6 0-4.6 0s2.2 6.2 2.5 9.8.9 12.9 2.6 16.1c1.6 3.2 3.8 10.1 5.6 11.4 1.8 1.3 3.3-.4 3.8-1.9.3-1.3 1-3.1-.2-4z"/><path class="st20" d="M500.7 223.9c-3.9.1-5.6-.8-6.5 1.6-.9 2.3.8 11.6.8 11.6l-16.1 57.5h-7.4s-5.3 13.3-5.2 15.9 2.3 6.5 7.1 6.2c4.8-.4 7-2.3 9.5-5.3s6.9-16.7 6.9-16.7H482l15.9-57.5s3.9-6.6 4.5-7.9c.6-1.4 2.2-5.5-1.7-5.4zm-.7 4.1l-1.9 4.6c-.1.3-.4.5-.7.5-.4 0-.8-.4-.8-.8v-4.6c0-.4.4-.8.8-.8h1.9c.5 0 .9.6.7 1.1z"/><path class="st18" d="M522.3 197.4s-.3 3.2-2 4.8-5.7 2-5.7 2l2.4 3.2s-6.8 5.7-8.2 7.7-3.9 3.8-5.2 5c-1.3 1.2-4.6 2.9-5.2 3.5s-.5 1.6.8 1.5c.8-.1 1.2-.3 1.8-.6 1-.5 2.1-.1 2.3 1.4.2 1.6-1.1 4.1-1.1 4.1s.4-.4 2-1.6c1.6-1.1 3.4-3.9 3.9-5.8s1.7-2.5 4.1-4.6c2.4-2.1 10.2-6.1 12.7-7.7 2.5-1.6 3.3-3.9 2.9-5.6-.5-1.8-5.5-7.3-5.5-7.3z"/><path class="st21" d="M488.1 197.6c-1.9-.2-3.6 1.7-3.6 1.7s.7 1.6 1.2 2.6c2.6 1 5.2-.7 5.2-.7s-.9-3.4-2.8-3.6z"/><path class="st22" d="M466.2 310.3c.1 6.4 6.6 6.3 6.6 6.3l7.2-22h-8.6s-5.3 10.2-5.2 15.7z"/><path class="st1" d="M208.5 140.3c-.1-.2-.2-.5-.1-.7.1-.8.6-1.3 1.3-1.3l.1-1.1 6.3-3.1c.8.9 1.2 2.2 1.1 3.6l-.3 3.6c0 .3-.1.7-.2 1 .5-.4.8-.9 1.2-1.4.6-.7 1.5-1.1 2.3-1.7.8-.6 1.4-1.5 1.3-2.4-.1-.8-.8-1.4-.8-2.2-.1-1.1 1.1-2.1.9-3.2-.3-1.7-3.1-1.4-4-2.9-.6-1-.1-2.6-1.1-3.1-.5-.2-1.1-.1-1.6 0-1.1.2-2.3 0-3.3-.6-.3-.2-.6-.4-1-.5-.9-.1-1.5.7-1.8 1.5s-.5 1.8-1.2 2.2c-1.1.6-2.7-.1-3.5.8-.7.7-.3 2-.1 3s-.1 2.5-1.2 2.4c-.3 0-.5-.1-.7-.2-.9-.1-1.6 1-1.4 1.9.2.9.9 1.6 1.6 2.3 1.4 1.3 3 2.6 4.3 4 .3.4.7.9 1.1 1.4l.2-2.6c-.1-.4.2-.7.6-.7z"/><path class="st23" d="M194 190.6c-.7 1.1-1.4 2.1-2.2 3.1-5.3-2.7-12.6-8.6-17.8-11.7-.3-.2-.6-.3-.9-.5-2.6-1.1-3.8.7-2.4 2.7.3.4.7.8 1.2 1.3 10.8 8.7 8.2 8.4 20.2 15.4 2.2 1.3 5.5-1.9 7.6-4.6-2.3-1.3-4.2-3.4-5.7-5.7zm-3.1 4.2c-.2.1-.1 0 .2-.1-.1 0-.2.1-.2.1zm1.7-.7c-.1-.1-.1-.1 0 0 0-.1 0-.1 0 0zm0 0c.2-.2.4.1 0 0zM192.8 142.6c-.3-.3-.7-.6-1-1-.7-.8-1.4-1.7-1.9-2.6-.7-5.9-.8-7.3.6-14.4.1-.6-.1-1.1-.4-1.5v-.1c.1-.5.1-1-.1-1.4-.2-.4-.6-.8-1.1-.7h-.1v-.1h-.3c.4 0 .1 0-.1.1-.1 0-.3.1-.4.2-.1 0-.1.1-.2.1l-.1.1c-.1.1-.3.2-.4.4-.1.6-.2 1.1-.3 1.7-.1.5-.1.9.1 1.4.1.2.1.3.3.4-.3 1.4-.6 2.7-.9 3.8-.3 4.8-1.5 10.4.7 14.8 0 0 0 .1.1.1.3.5.9 1.3 1.5 2 1.2-1.3 2.6-2.4 4-3.3zM226.2 155c.8-.3 1.7-.6 2.2-.9 0 0 .1 0 .1-.1 4.2-2.6 6.2-8 8.4-12.2.4-1.1.8-2.3 1.2-3.7.2-.1.3-.1.4-.2.4-.3.6-.7.8-1.1.2-.5.4-1.1.6-1.6 0-.2-.1-.4-.2-.5v-.1c0-.1-.1-.1-.1-.2s-.2-.3-.2-.4c-.2-.1-.3-.3 0-.1-.1-.1-.2-.1-.2-.2v.1l-.1-.1c-.4-.3-.9-.2-1.3 0-.4.3-.6.7-.8 1.1v.1c-.5.2-.9.5-1.1 1.1-2.5 6.8-3.4 7.9-7.1 12.6-.7.4-1.5.7-2.3 1 .5 1.9.2 3.5-.3 5.4z"/><path class="st1" d="M223.6 184.3c-1.4-1.2-3-2.3-4.6-3.3-1.7-1.1-3.6-2-5.5-2.8h-14.4l-1.3-.2c-.1.8-.1 1.5.1 2.2-.7 3.8-2 7.3-3.9 10.4 1.6 2.3 3.4 4.4 5.8 5.7.6-.7 1.1-1.4 1.4-1.9 2.2-3.3 3.9-6.8 5-10.5 5.6 1.5 8.8 2.4 11.1 3.6.6-1 1.1-2.1 1.4-3.2.1-.5.3-1.1.3-1.7-.1.6-.2 1.1-.3 1.7-.3 1.1-.8 2.2-1.4 3.2 1.6.9 2.8 1.9 4 3.5 2-.5 3.9-1.5 5.7-2.7-1.1-1.6-2.1-2.9-3.4-4z"/><path class="st23" d="M237.3 208.3c-.1-.5-.3-1-.7-1.5-5.3-9.1-7.5-14.7-9.8-18.5-1.8 1.2-3.6 2.2-5.7 2.7.9 1.2 1.8 2.6 3 4.6 2.9 4.8 5.5 9.6 8.9 14 .7.9 1.5 1.3 2.3 1.4 1.4.2 2.6-.7 2-2.7zM213.6 149.3c-.6-.2-1.3-.4-2-.5l.3-3.5c.3.1.6.2.9.2 1.8.1 3.3-1.2 3.9-3.1.1-.3.2-.6.2-1l.3-3.6c.1-1.4-.3-2.7-1.1-3.6l-6.3 3.1-.1 1.1c-.6-.1-1.2.5-1.3 1.3 0 .3 0 .5.1.7-.4 0-.7.3-.8.7l-.2 2.6-.4 4.2c-1-.1-2-.2-2.9-.3.3 3.5 1.1 7 3.3 9.4 2.3-2.3 4.4-4.8 6.1-7.7z"/><path class="st24" d="M199.1 178.2H215c-.1-1.7-.2-3.5-.2-5.2-.3-2.2-.3-4.4.3-6.9.8-3.3 1.7-6.3 2.1-9.3 1.4-.1 2.8-.3 4.2-.6 1-.2 1.9-.4 2.9-.5h.1c.1 0 .9-.3 1.8-.6.5-1.9.8-3.5.3-5.5-.2.1-.4.2-.7.2-1.3.4-2.6.6-4 .8-1.6.2-3.2.2-4.7.2-.8-.5-1.7-.9-2.7-1.2-.3-.1-.6-.2-.8-.3-1.6 2.9-3.8 5.4-6 7.7-2.1-2.4-3-5.9-3.3-9.4-.4 0-.8-.1-1.1-.1-.9 0-1.7-.1-2.3-.1-.4 0-.9 0-1.4.1-1.6-.9-3.2-2-4.7-3.1-.7-.6-1.4-1.2-2-1.8-1.5.9-2.8 2-4 3.4.6.7 1.1 1.2 1.2 1.3l.1.1c.7.6 1.5 1.3 2.2 2 1.7 1.5 3.3 3 5.3 4.1.1.1.2.1.3.2.1 3.2.5 6.4.5 9.5 0 5.1-.9 9.9-.6 14.8l1.3.2z"/><path class="st1" d="M173.1 181.5l-1.1-2.2c-.1-.2-.4-.1-.6.1l-4.7 4.4c-1.2 1.2-.6 2.6.8 1.9l3.2-1.5c-1.4-2-.1-3.7 2.4-2.7zM240.6 206.3l-3.2 2c.5 1.9-.6 2.9-2 2.7l1.5 2.2c.1.2.4.1.6-.1l4.2-4.9c1-1.3.2-2.7-1.1-1.9z"/><path class="st3" d="M228 21.7c.5.4 1.2.7 1.5 1.3.3.5.3 1 .5 1.5.3.7 1 1.1 1.8 1.1.7 0 1.4-.4 2 0 .3.2.4.5.7.6.9.5 1.9-1.1 2.9-.8l.6.3c.9.4 1.5-.3 2.2-.7.7-.4 1.4-1 .9-1.9-.2-.3-.4-.5-.6-.8-.6-.7-.7-1.6-1.1-2.4-.4-.8-1-1.5-1.8-1.9-.6-.3-1.2-.5-1.7-1-.3-.3-.5-.8-.7-1.1-.5-.6-1.2-.9-2-.8-1.3.2-2.3 1.6-3.6 1.7-.6.1-1.2-.1-1.8-.1-.9 0-1.8.7-1.8 1.6 0 .4.2.9.4 1.2.5.8 1 1.6 1.6 2.2z"/><path class="st1" d="M243.4 25.4c.1-.1 0-.2-.1-.3l-5.9-3-1-2.9c0-.1-.2-.2-.3-.1-.1 0-.2.2-.1.3l.8 2.5-2.3-1.2-1-2.9c0-.1-.2-.2-.3-.1s-.2.2-.1.3l.8 2.5-3.4-1.7c-.1-.1-.3 0-.3.1v.2l.1.1 3.4 1.7-2.7.9c-.1 0-.2.2-.1.3.1.1.2.1.3.1l3.1-1 2.3 1.2-2.7.9c-.1 0-.2.2-.1.3.1.1.2.1.3.1l3.1-1 5.8 3c.2-.1.3-.1.4-.3z"/><path class="st3" d="M314.1 55c.2.8.7 1.6 1.4 2.1.5.4 1.1.7 1.5 1.3v.1c.2.4.3.8.5 1.2.4.6 1.1 1.1 1.8 1.1 1.3 0 2.5-1.2 3.8-1.1.6 0 1.2.3 1.7.4.9.1 1.9-.4 2.1-1.3.1-.4-.1-.9-.2-1.3-.3-.8-.6-1.7-1.2-2.4-.4-.5-1-.9-1.3-1.5-.2-.5-.1-1.1-.3-1.6-.2-.7-.8-1.3-1.6-1.4-.7-.1-1.5.1-2-.3-.2-.2-.3-.5-.6-.7-.8-.6-2.1.8-3 .3-.2-.1-.4-.3-.5-.4-.8-.6-1.5 0-2.3.3-.7.3-1.5.8-1.2 1.7.1.3.3.6.5.9.7.8.7 1.7.9 2.6z"/><path class="st1" d="M322.9 57.3l-3-2.3 2.8-.4c.1 0 .2-.1.2-.3 0-.1-.1-.2-.2-.1l-3.2.5-2.1-1.6 2.8-.4c.1 0 .2-.1.2-.3 0-.1-.1-.2-.2-.1l-3.2.5-5.3-3.9c-.1-.1-.2-.1-.3 0-.1.1-.1.2.1.3l5.3 3.9.5 3.1c0 .1.1.2.3.2.1 0 .2-.1.2-.3l-.4-2.6 2.1 1.6.5 3.1c0 .1.1.2.3.2.1 0 .2-.1.2-.3l-.4-2.6 3 2.3c.1.1.2.1.3 0 0-.1.1-.1 0-.2l-.5-.3z"/><path class="st0" d="M324 30.2s-5.5-2.4-9.5-.3-5 8-5 8 5.5 2.4 9.5.3 5-8 5-8z"/><path class="st1" d="M320.6 31.9c-.1-.1-.2-.2-.3-.1l-3.4 1.8.8-2.6c0-.1 0-.2-.2-.3s-.2 0-.3.2l-.9 3-2.4 1.3.8-2.6c0-.1 0-.2-.2-.3-.1 0-.2 0-.3.2l-.9 3-6 3.2c-.1.1-.2.2-.1.3l.1.1h.2l6-3.2 3.2 1c.1 0 .2 0 .3-.2 0-.1 0-.2-.2-.3l-2.8-.8 2.4-1.3 3.2 1c.1 0 .3 0 .3-.2 0-.1 0-.2-.2-.3l-2.8-.8 3.5-1.8c.3-.1.3-.2.2-.3z"/><path class="st0" d="M305.8 3c0-1.6-1.3-3-3-3-1.6 0-3 1.3-3 3s1.3 3 3 3c1.6 0 3-1.4 3-3z"/><path class="st1" d="M261.7 70.4c.3 0 .3.1.7.2.2.2.1.4 0 .4.1 0 .1.3.3.3 0-.3-.2-.7-.5-.9 0-.1.1-.1.1-.1-.2-.1-.6-.1-.6.1zM260 68.3l.2.2-.2-.2zM262.8 88.6c0-.1.1-.2.1-.3-.2.2-.5-.4-.1.3zM259.9 68.2l.1.1s.1 0 .1-.1c-.1.1-.1 0-.2 0zM291.1 54.7c0 .1.1.3.2.4h.1c-.1-.1-.2-.2-.3-.4zM261.6 69.7c.1.1-.1.2-.2.1.1.1.2.2.3.1l-.1-.2zM261.4 69.8z"/><path class="st1" d="M297.8 79.2c-.1-.3-.2-.7-.4-1.1-.1-.5.2.3.2-.1-.6-1.1-.6-1.9-1.2-2.8.1-.5-.3-1.2-.8-1.8l-.9-.9-.4-.4-.1-.1s0-.1-.1-.1l-.1.1c-.2 0-.1-.2-.2-.4-.1.1.1.3-.1.2-.7-.7-1.1-1.7-1.3-2.7-.1-.5-.1-1-.1-1.5s.1-1 .3-1.4c.1-.3 0-.4-.1-.6s-.1-.3.3-.7l.1.4c.1-.4.4-.8.5-1.4.2-.5.2-1 .3-1.5.1-1 0-1.9-.3-2.8.1.1.2.1.2.3.1-.4-.3-1.4-.5-1.3-.1-.3.1-.1.1-.3 0-.4-.5-.8-.4-1.1l.1.1c-.1-.1-.2-.4-.3-.6-.1-.2-.2-.4-.3-.2-.3-.7-.9-1.1-1.2-1.5-.4-.1-.8-.9-1.1-.7.1-.1-.1-.4-.3-.6-.3-.2-.7-.4-1-.4.2 0-.3-.3-.1-.3-.4-.2-.8-.3-.8-.1-.2-.4-.5-.5-.8-.6-.2-.1-.4-.3-.2-.5-.2-.3-.3-1-.6-1.7-.2-.7-.5-1.3-.9-1.8.2-.1.4.3.5.6.2.3.3.7.4.6-.3-.6-.6-1-.9-1.4s-.7-.7-1.1-1.2c-.2-.3.2 0 .4.1l-1.5-1.2c-.5-.3-1.1-.6-1.6-.6h.3c-.2-.1-.5-.2-.5 0h.2c.1.2-.1.2-.4.2s-.6.1-.6.1c.4-.4-.9-.3-.3-.8-.1 0-.3 0-.3.1-.2-.1-.2-.1 0-.2-.7-.1-.5.1-1-.1 0-.1.1-.1.2-.1h-.5c-.1 0-.2 0-.3-.1-.1-.1-.2-.1-.3-.2.1 0 0-.1.2 0-.4-.2-.8-.4-1.3-.5s-.9-.1-1.4-.3c.4-.3-.3-.2-.4-.4h-.6l.2.2c-.5-.1-1 .1-1.4.1l.4-.1c-.3 0-.6 0-1 .1.2 0 .4.1.5.1-.5.2.1.3-.6.3.1 0-.5 0-.8-.1-.2.1-.5.3-.8.3-.1-.1 0-.3-.1-.4-.2.3-1.1.3-1.3.7.1-.1 0-.2 0-.2l-.1.2c-.2 0-.3 0-.3-.1-.7.2.3.3-.5.4.1 0 0-.1.1-.1-.8.2-1.4.7-2.1 1-.3-.1.6-.4.2-.5-1 .6-1.8 1.5-2.6 2.1l.2-.1c.2.4-.7.4-1 .9.1-.1 0-.3 0-.2-.6.5-1 1.2-1.4 2.3v-.2c-.3.3-.5 1.1-.7 1.5.1.2 0 .4.2.3-.4.7-.4 1.4-.2 2.1.1.7.3 1.3.1 1.9 0-.1-.1-.3-.1-.2l.2 1c.2-.1.1-.1.2-.4.1.1.2.4.2.7-.2-.5-.3 0-.4.2h.2c-.3.5.4.1.2.8h-.1c0 .3.1.5 0 .8-.2.1 0-.3-.2-.4-.1.4.2.9-.2 1.2 0-.2.1-.4.1-.6-.3.3-.3.4-.5.6-.1.2-.2.4-.4.6l.1-.1c.2.7-.4 1-.5 1.8.1-.8-.1-.2-.3-.4-.1.1-.3.3-.4.2 0 .4-.4.4-.4 1-.1 0-.1.4-.3.2-.1.5.2-.1.2 0 0 .4-.2.8-.3 1.2-.1.4-.2 1 0 1.5.1.4.2.7.4.9.1.2.3.4.4.7v.1c-.1.2-.3-.1-.3-.1 0 .5.1.8.4 1.1-.1-.1-.1.1-.1.2.2.3.3.1.5.5-.1 0-.3 0-.4-.1.3.3.6.6.9.8 0 .2-.3-.1-.5-.1.2.2.5.5.8.6-.3-.2-.3-.4-.3-.5l.2.2c.1-.3-.1-.4-.4-.7l-.7-.7c.1 0 .3 0 .4.1s.1.3.2.4c.4.6 1 1.1 1.5 1.7.3.4.6.8.8 1.3v.1c-.1 0-.2 0-.4.1v-.2h-.3c.1.1.1.2.2.3-.1.1-.2.3-.2.7.1.2.3.3.4.5l-.1.2c0-.2-.1-.3-.1-.5-.1.3.1.4.2.6-.1.1-.1.2-.1.3.1.2.3.3.4.5-.1.1-.3-.2-.3.2.2.2.3-.3.4.1-.1.3-.3.2-.1.5-.1.1-.1 0-.2-.1.1.3.1.8.3.9-.2.3.1 1-.3 1 .1.1.2.5.2.8-.3-.5-.1 1-.5.8.3.4 0 1.3 0 2.1 0 0-.1-.1 0-.2-.1.4-.2.5-.3.7.3.1.2.7.4 1.1-.4.4-.3-.3-.6-.2.2 0 .1.9.3.7-.2.3-.1.3-.4.5.4.1 0 .4.2.7-.2.5-.4.1-.3.7-.1.3-.2-.3-.2-.3 0 .6.3.3.4.4.1.7-.2.3-.3.6.1.5.4.8.4 1.2 0 0-.1.1-.1 0 .1.2.2.6.3 1 .1.4.3.7.5 1v.1c.1-.1.2-.2.3-.2.1.2.4.4.2.6-.1-.2-.1-.1-.2-.2l.2.2c-.1.4-.2-.3-.4-.2.3.5.8.9 1 1.3-.2.2-.6-.8-.5-.2l-.3-.6c-.1.3-.1.2-.1.1s-.1-.2-.2.1c.4.8.6.8 1.1 1.6.2.1.1-.2.4-.1 1 .8.1 1.2 1 1.6.3 0 .6-.1.9.4l-.4.1c.6.6.6 0 1.2.7-.2 0-.6-.3-.5-.2.3.5.4.1.8.4l-.1.3c.8.5 1.7.9 2.6 1.3-.1 0-.3 0-.1.2 1.2.5 2.4 1.2 3.4 1.8h.5c.1 0 .2.2 0 .2.4.2.1-.1.3-.1.3.1.3.2.1.2.8.1 2.3.3 3.1.8h-.2c.6.2.8-.3 1.4.1h-.1c1.4.4 3 .4 4.1.8.2-.3 1.4.2 1.6-.2.8.2.6.3 1.8.4.3 0 .5-.3.8-.4v.2c.2-.1.3-.2.5-.3.1.1.2.1.3.2.1 0 .2-.1.4-.2-.2 0-.3 0-.3-.1.5-.2 1.4-.3 1.5-.2.4-.2.8-.5 1.2-.8 0 .1-.1.2-.2.2.3-.3.2.2.6-.3-.1 0 0-.1-.1-.2.4-.1 1-.6 1.4-1.1v.2c.8-.8 1.4-2 1.7-3.2-.2.4-.4.2-.4-.1l.3-.1c-.1-.3-.2.4-.3-.1.1-.2.1-.3.2-.3s.1.1.2.3v-.5c.1 0 .1.1.2.1-.1-.2.3-.8.1-1.1h.1c.1-1.1.1-1.5.3-2.3-.2-.1-.1-.4-.1-.6.3-.5.7-1 1.1-1.7.2-.5-.1-.2-.1-.5.2.1.6-.6.5-.2.4-.8.6-1.1 1-2.3-.1.1-.2.2-.3.1.1-.2.3-.4.4-.4v.1c.1-.7.5-1.4.8-2.2 1-1.1 1-2 .7-2.6zm-35.9-25.4h.2v.3s-.1-.1-.2-.3zm-2.3 10.9c.1-.1.2-.1.2-.2v.5s-.1 0-.2-.3zm.6 3.1c0-.1.1-.2.2-.1.1.2.2.3.2.5-.1-.2-.3-.3-.4-.4zm9.7 27.4c-.1 0-.1-.1-.1-.1 0 .1.1.1.1.1zm.6.3c0-.1.1-.1.2-.1-.1 0 .2.2.3.3-.1 0-.3-.1-.5-.2zM286.7 99.1h-.1zM260.5 60.9zM261.2 70.1c0-.1 0-.1 0 0z"/><path class="st1" d="M259.5 67.4c-.1-.1.1-.7-.1-.9 0 .2 0 .6.1.9zM267.6 44.6v.2l.4-.2z"/><path class="st11" d="M263 66.6c-1.5.9 8.4 13.7 8.4 13.7L284 68.7s-1.5-1-3.3-1.7-4-1.1-4-1.1l.1-4.6s1.9-.9 2.8-3.6c.9-2.7 1.9-8.8-3-9.8 0 0-4.8-1.3-8.1.9-.3 0-1.1 4.8-.7 7.5.5 2.7 1.1 4.4 2.7 5.6 0 .6-.4 3.4-.4 3.4s-5.6.5-7.1 1.3z"/><path class="st1" d="M278.7 54.2c1 1.3.1 4.5 3.7 7.3 3.6 2.9 6-4.4 3.5-8-2.6-3.6-6.9-7.8-13.7-8.4 0 0-1.1 2.8-.5 3.7 1.3 2.2 5.3 3.1 7 5.4z"/><path class="st11" d="M280.9 56.8c.2-.6-.1-1.2-.7-1.3-.7-.2-1.4.5-1.4.5l-.6 2.8s.5 0 1.1-.2c.8-.2 1.5-1.3 1.6-1.8zM270.7 120.4s-10.3-8.8-11.3-3.1c-1 5.6-1.3 11.3-1 15.8s.2 4.7 2.1 10.3c2 5.6 6.1 19.9 6.1 19.9l5.1-1.1s0-7.8-1.3-14.1-2.6-11.3-2.5-11.7c.8-2.7 2.8-16 2.8-16z"/><path class="st1" d="M266.2 53c.1 0 .2-.1.2-.1.9-1 4-3.2 5-4.1.8-.7-.2-2-.4-2.3-.3-.4-.7-.9-1-1.2-.4-.3-.9-.2-1.4-.1-.5.2-1.4 1.4-1.5 1.6-.3 1.3-.7 2.6-1 3.9-.2.7-.3 1.5 0 2.1 0 .2 0 .2.1.2z"/><path class="st11" d="M272.4 117.3c-.3 5.7.2 11.4 1.1 15.8.9 4.4.8 4.7 3.5 9.9 2.7 5.3 8.8 18.9 8.8 18.9l4.9-1.8s-1.1-7.7-3.2-13.8c-2.2-6.1-4.1-10.8-4.1-11.2.4-2.8.6-16.2.6-16.2s-11.3-7.3-11.6-1.6zM316.1 75.3c1.6-1.1 1.2-4.7.1-5.1-1-.4-5.1 3.1-5.9 3.7l-3.2 2.8c.9 1.3 1.6 2.6 2.4 4 1.7-2.1 2.9-3.6 2.9-3.6s2.1-.7 3.7-1.8zM239.4 58.5s1.2 5.6 2.7 11.5c.5-.4 1.1-.8 1.6-1.3 1-.8 1.2-1.3 2.2-2.2 0 0-2.2-8.6-3.4-10.9-1.2-2.4-4-5.1-5.1-5.5-1.1-.3-1.8 4-1 5.2.9 1.3 3 3.2 3 3.2z"/><path class="st3" d="M297.2 94.6c2.6-.5 9.8-9.9 13.5-14.4l-2.2-4.6-11.2 9.2s-10.8-15.3-12.2-16.3c-1.4-1-5.7-2-5.7-2s-1.2 4.1-6.6 4.1c-6.5 0-6.6-4.9-6.6-4.9s-3.4.2-4.5.9-12.3 7.4-12.3 7.4L244 59.3c-1.1 1.3-2.8 3.4-3.9 4.7 1.7 7.1 4.1 20.2 5.6 20.5 3.8.6 11.4-2.9 14.6-3.5 0 1.2.1 4.4 0 5.7-.8 10.8-4.7 30.9-7.4 40.6 11.4 6.1 30.9 5.9 39.3-1.8 0 0-8.8-41.2-8.6-43.1 3.3 6.3 11.6 12.6 13.6 12.2z"/><path class="st24" d="M252.6 71.4c-1.8 2.7-.2 16.4-.2 16.4 2.5.1 4.8-.3 6.6-1.8 0 0-1.1-14.7.7-18.3-.8 0-5.4 1.3-7.1 3.7zM299.7 103.2s5-2.6 5.3-5.1c-9.7-2.6-10.7-14.4-13-22.5-2.3-8.2-11.2-8.5-11.2-8.5 7.1 3.4 4.6 13.1 7.3 22.3 3 9.8 11.6 13.8 11.6 13.8z"/><path class="st3" d="M267.2 178.7c.5 1.9 1.3 2.3 3 1.8 1.9-.7 3-3.6 3-5.6s1.1-3 1.1-4.4 0-2.1-.6-3.7c-.6-1.5-1.7-14.1-1.7-14.1-4.7 1.3-6.8 1.7-9.2 2 0 0 4.7 13.5 4.7 15.2 0 1.8-.8 6.8-.3 8.8zM292.5 164.9c-.7-1.4-2.7-14.2-2.7-14.2-2.5 1.9-5.2 2.8-8.4 3.1 0 0 5 12.3 5.2 13.9.2 1.7-.3 7.2.4 9.1.6 1.8 1.8 2.6 3.4 2.1 1.8-.5 2.9-4.5 2.7-6.4-.2-1.9.4-3.1.5-4.4-.1-1.3-.4-1.8-1.1-3.2z"/><path class="st1" d="M263.9 20.2s-.5.7-.7.8c1.4.9 4.1.6 4.1.6s.9 2.6 2.4 3.4c0-.2.4-.9.4-.9 1.6.2 3.2.3 5.2-.7l-1.4-1.6s1.9.5 3.4-4.2c0 0-2.7-.8-4.7-.1.8-.6.9-1.6.9-5.9-3.9 1.9-4.7 2.5-4.9 3.5-.3-2.2-2.2-4.2-2.2-4.2-3.5 3.5-2.2 4.9-2.2 4.9l-2-.5c-.1 2.2.8 3.6 1.7 4.9z"/><path class="st3" d="M273.7 19.3c-.1-.1-.2-.2-.4-.1 0 0-2 1-5.5 1.9l3.4-5.5c.1-.1 0-.3-.1-.4-.1-.1-.3 0-.4.1l-3.4 5.5c-.7-3.5-.7-5.7-.7-5.7 0-.1-.1-.3-.3-.3-.2 0-.3.1-.3.3 0 .1 0 2.2.7 5.8-.8-.7-1.4-1.4-1.9-2.2-.1-.1-.2-.2-.4-.1-.1.1-.2.2-.1.4.6 1 1.4 1.9 2.4 2.7l-1.6 2.6c-.1.1 0 .3.1.4h.1c.1 0 .2 0 .2-.1l1.6-2.6c1.2.6 2.4.9 3.5 1 .1 0 .3-.1.3-.3 0-.1-.1-.3-.3-.3-.9 0-1.8-.3-2.9-.7 3.5-1 5.4-1.9 5.5-2 .5-.1.6-.3.5-.4z"/><path class="st0" d="M243.1 45.1s-5.6-2-9.5.5c-3.8 2.4-4.4 8.4-4.4 8.4s5.6 2 9.5-.5c3.9-2.4 4.4-8.4 4.4-8.4z"/><path class="st1" d="M245.2 43.8c-.1-.2-.2-.2-.3-.2l-5.7 3.6-3.1-.7c-.1 0-.2.1-.3.2 0 .1.1.2.2.3l2.7.6-2.3 1.5-3.1-.7c-.1 0-.2.1-.3.2 0 .1.1.2.2.3l2.7.6-3.3 2.1c-.1.1-.1.2-.1.3.1.1.2.1.3.1l3.3-2.1-.6 2.8c0 .1.1.2.2.3s.2-.1.3-.2l.7-3.3L239 48l-.6 2.8c0 .1.1.2.2.3.1 0 .2-.1.3-.2l.7-3.3 5.7-3.6c-.2 0-.1-.1-.1-.2z"/><path class="st4" d="M681 197.1c22.2 0 38.3 13.3 39.9 39.9 2.2 29.1-17.7 39.9-39.9 39.9-22 0-39.9-10.5-39.9-39.9-.1-28.4 17.7-39.9 39.9-39.9zM720.2 287.2c.6 8.5-5.9 13.1-13.1 13.1-7.2 0-13.9-5.9-13.1-13.1 1-9.3 5.9-13.1 13.1-13.1 7.5 0 12.6 5.9 13.1 13.1z"/><path class="st1" d="M680.4 265.8v63.5h1.4v-25.1l25.9-16.5-.8-1.1-25.1 16v-36.8h-1.4z"/><ellipse class="st2" cx="671.1" cy="224.6" rx="8" ry="9.8"/><path class="st1" d="M667.8 233.5c1 .6 2.1.9 3.3.9s2.3-.3 3.3-.9c1.4-1.5 2.4-4 2.4-6.9 0-4.7-2.5-8.5-5.6-8.5s-5.6 3.8-5.6 8.5c-.2 2.9.8 5.4 2.2 6.9z"/><ellipse class="st2" cx="669" cy="220.4" rx="2" ry="1.7"/><ellipse class="st2" cx="692.3" cy="224.6" rx="8" ry="9.8"/><path class="st1" d="M689 233.5c1 .6 2.1.9 3.3.9s2.3-.3 3.3-.9c1.4-1.5 2.4-4 2.4-6.9 0-4.7-2.5-8.5-5.6-8.5s-5.6 3.8-5.6 8.5c-.1 2.9.8 5.4 2.2 6.9z"/><ellipse class="st2" cx="690.2" cy="220.4" rx="2" ry="1.7"/><ellipse class="st5" cx="659.7" cy="238.3" rx="3.2" ry="1.9"/><ellipse class="st5" cx="703.7" cy="238.3" rx="3.2" ry="1.9"/><path class="st1" d="M691.8 243.2c1.3 0 2.3 1.2 2 2.4-1.1 5.7-6.1 9.9-12.1 9.9s-11-4.3-12.1-9.9c-.3-1.3.7-2.4 2-2.4h20.2z"/><path class="st5" d="M688.3 253.7a12.414 12.414 0 0 1-13.2 0c.9-2.4 3.5-4.1 6.6-4.1 3.1-.1 5.7 1.7 6.6 4.1z"/><path class="st0" d="M588.2 389.4c5-.9 8.5-2.3 8.5-4.1 0-2.1-7.5-16.7-14.1-27.9 4.3-.7 7.5-1.7 7.5-3.2 0-2.4-14.8-29.6-17.2-29.6-3.1 0-18.2 27-17 30.6.3 1 2.9 1.9 6.4 2.3-6.8 11.2-14.1 26.1-13 29.1.5 1.5 4 2.6 9.1 3.2-7.1 12.6-14.3 26.6-14.3 28.6 0 4.1 14.6 6.6 28.8 6.6 14.3 0 27.6-1.6 28.6-4.8 1.2-3.3-5.7-18-13.3-30.8z"/><path class="st1" d="M580.5 374l-.7-.8-6.3 6.4v-15.4h-1v46.9l-7.4-7.3-.8.7 8.2 8.1v32.7h1V381l7-7zM572.8 339c-1.5-.1-5.2-1.8-11.6-.3.1 2.1 0 1.1.6 1.6s.4 3.6 1.7 4.8c.7.7 2.6.9 3.7.7 1.8-.3 2.6-.9 3.5-2.2 1.7-2.4.9-3.1 2.2-3.4 1.3.2.5 1 2.2 3.4.9 1.3 1.7 1.9 3.5 2.2 1.1.2 3 0 3.7-.7 1.2-1.2 1-4.3 1.7-4.8.6-.4.4.5.6-1.6-6.6-1.6-10.3.1-11.8.3zM572.8 352.4c-2.7 0-5.1-1.4-6.5-3.7v-.1c-.1-.2 0-.4.2-.6.2-.1.4 0 .6.2v.1c1.2 2.1 3.4 3.3 5.8 3.3s4.6-1.3 5.8-3.3c.1-.2.4-.3.6-.2.2.1.3.4.2.6-1.5 2.3-4 3.7-6.7 3.7z"/><path class="st2" d="M1801.3 454.4l.7-1.8c-.2-.1-5.9-4.2-15.2-5.9-9-1.6-23.5-6.1-32.9-11.3-9-5-20.9-20-21-20.2l-1.5 1.2c.5.6 12.2 15.5 21.6 20.7 9.5 5.2 24.3 9.8 33.5 11.5 9 1.6 14.8 5.8 14.8 5.8z"/><path class="st25" d="M1697.7 362.1c.3.9.6 2.1.4 3.3 0 .2-.1.5-.2.7-.4 1.5-1.6 3.9-1.6 3.9l.3.1s1.7 2.3 4 5.1h5.8c-.3-.7-.5-1.4-.7-2.1-.4-1.5-.7-2.6-.7-3.1 0-1.7.1-3.6.4-4 .2-.3.4-.3.7-.3.2 0 .5.1.6.2.5.2 3 1.5 3.8 1 .7-.4 1.5-2.1 1.6-4s.6-2.9.6-2.9 1.1-.5 1.1-1c-.1-.5-1.9-2.8-2-3.6 0-.4.2-.8.3-1.1.2-.3.2-.7.1-1l-.7-2c-.7-5.2-7.9-5.6-7.9-5.6h-.7c-4.8-.1-8.8 3.6-9 8.4-.1 2.5.9 4.8 2.6 6.4.4-.1.8.6 1.2 1.6z"/><path class="st24" d="M1709.7 351.5c4.9-.5 4-5.5 2.7-5.1-1 .3-4.4-2.3-8.3-2.5-6.5-.3-12.2 4.7-10.1 11.5.5 1.6 1.4 5 2.9 5.1.9.1 3.4-1.3 4.3-1.7-1-1.6-2-5.1.1-5.4 1.3-.2 2.3 1.7 2.3 1.7.1 0 .1-.1.2-.2 1.3-2.9 4-3.2 5.9-3.4z"/><path class="st25" d="M1724.2 412.1l1.7 1.6s2.4 4.4 4 4.4 4.7-3.5 4.2-4.8-6.3-2.5-6.3-2.5l-2.1-1.7-1.5 3z"/><path class="st4" d="M1698.1 372.1c-2.9-.3-4.8 2.5-4.8 5.3 0 1.4 3.4 11.1 13.2 22.3 1.8 2 18.4 13.4 18.4 13.4l2.4-3.2c-10.5-10.9-16.1-15.6-16.1-15.6-2.2-4.2-6.9-21.6-13.1-22.2zM1679.9 386c-.4-.1-.7-.2-1-.2-.7-.1-1.4.4-1.5 1l-2.4 9.5c-.2.7.2 1.4.8 1.6l1.5.6 2.6-12.5z"/><path class="st1" d="M1695.5 372.5c-10.1-4.8-12.8 4.3-13.8 6.5-2.9 6.3-6.3 17.9-6.3 22.8 0 9.9 13.8 10.8 13.8 10.8l7.5-36.8-1.2-3.3zM1711.9 484.2l-6.2.6-2.6-33.4s-7.4-14.2-9.5-20.7c-1.7-5.2-2.6-10-1.4-12.5 1-2.1 4.4-2.5 7.3-2.4 2.3.1 4.3 2.9 4.3 2.9s3.1 6.1 4.4 10.3c1.7 5.4 4.7 18.6 4.7 18.6l-1 36.6z"/><path class="st8" d="M1709.1 391.3c-.2 1.6-.3 3.2-.5 4.7v.2c-.5 3.8-4 18.6-4.9 22.5l-18-1c-.3-6.7 1.5-14.1 2.8-21.6 1.9-9.1 4.1-18.1 6.2-23.1.5-1.2.9-2.1 1.4-2.9.5-.7 3.7.2 5.6.9.5.2.9.3 1.1.5 3.9 1.8 6.3 6.6 6.5 14.5 0 1.6 0 3.4-.2 5.3z"/><path class="st26" d="M1685.6 414.1s-.3 2.4-.2 8.2c.1 6.8 3.4 26.3 3.4 26.3l-16.9 28.3 4.8 3.5 21.2-29.5s3.2-11.1 5-27.1c.1-.9.8-6.1.8-6.1l-18.1-3.6z"/><path class="st1" d="M1704.5 418.2l-19.4-4.1.4-2.4 19.3 4.4z"/><path class="st0" d="M1694.6 373.2c2.1-1.9 10-4.1 12.1 9.3 1.9 12.5-13.4 17.9-20.1 17.9-3.7 0-4.3 2.1-4.3 3.6 0 2.2 1.6 2.8 4.3 2.8 8.5 0 26.3-9.7 21.3-26.7-3.8-13.2-13.3-9-13.6-7.8-.1.2.3.9.3.9z"/><path class="st4" d="M1681.9 398c-.3-.1-.5-.3-.4-.6l7.9-26.4c.1-.2.3-.4.6-.3.2.1.4.3.3.6l-7.9 26.4c-.1.2-.3.3-.5.3z"/><path class="st25" d="M1691.6 420.4v2.4s-1.5 4.8-.5 5.9c1.1 1.1 5.8 1 6.4-.2s-2.5-6.3-2.5-6.3l-.2-2.7-3.2.9z"/><path class="st4" d="M1703 374.1c-1.8-2.3-5.1-1.7-7.1.1-1 1-5.8 10.1-7.3 24.9-.3 2.7 2.8 22.6 2.8 22.6l3.6-1c.8-15.1.7-21.8.7-21.8 1.6-4.5 11.1-19.9 7.3-24.8z"/><path class="st0" d="M1710.8 476.3c-.5.6-4.8.8-6.7.3.1-.5.3-1.1.5-1.6.1-.3.3-.5.6-.6l5.8-1.2c-.1.8-.3 2-.2 3.1z"/><path class="st8" d="M1719.5 487.1c.7 0 1.3-.6 1.4-1.3.1-1.1.4-1.9.8-2.5 1.6.7 3.3 1.3 5.2 1.8 1.1.3 1.9 1.3 1.9 2.5 0 1.4-1.2 2.6-2.6 2.6h-22c-.6 0-1-.4-1.1-1-.1-.7-.2-1.4-.2-2.2h16.6v.1z"/><path class="st4" d="M1719.5 487.1h-16.7c-.2-3.3.4-6.8 1.4-10.5 1.9.5 6.2.3 6.7-.3-.1-1.1.1-2.3.2-3.1l.5-.1c.3-.1.5.1.6.4 1.1 4.6 4.6 7.7 9.5 9.9-.3.6-.7 1.4-.8 2.5-.1.7-.7 1.2-1.4 1.2z"/><path class="st8" d="M1711 477.5c1-.8 2.1-1.3 2.1-1.3.2-.1.3 0 .4.2s0 .3-.2.4c0 0-1 .4-2 1.2-.1 0-.1.1-.2.1s-.2 0-.2-.1c0-.2 0-.4.1-.5zM1714.3 477.9c.1-.1.3 0 .4.1s0 .3-.1.4c0 0-1 .5-1.8 1.4-.1.1-.1.1-.2.1s-.1 0-.2-.1-.1-.3 0-.4c.9-.9 1.9-1.5 1.9-1.5zM1715.6 479.3c.1-.1.3 0 .4.1s0 .3-.1.4c0 0-1 .6-1.7 1.5-.1.1-.1.1-.2.1s-.1 0-.2-.1-.1-.3 0-.4c.8-.9 1.8-1.5 1.8-1.6zM1717 480.5c.1-.1.3-.1.4.1.1.1.1.3-.1.4 0 0-.9.7-1.6 1.7-.1.1-.2.1-.2.1-.1 0-.1 0-.2-.1s-.2-.3-.1-.4c.8-1.1 1.8-1.8 1.8-1.8zM1718.5 481.6c.1-.1.3-.1.4 0s.1.3 0 .4c0 0-.8.8-1.4 1.8-.1.1-.2.2-.3.2h-.1c-.1-.1-.2-.3-.1-.4.6-1.1 1.5-1.9 1.5-2z"/><path class="st0" d="M1681.4 472.8c-.8.2-4.4-2.2-5.6-3.7.4-.3.9-.7 1.3-1 .2-.2.6-.2.8-.1l5.4 2.4c-.5.5-1.3 1.5-1.9 2.4z"/><path class="st8" d="M1682 486.6c.6.4 1.4.3 1.9-.2.7-.9 1.5-1.3 2.1-1.6.9 1.5 1.9 3 3.1 4.5.7.9.8 2.2.1 3.1-.8 1.2-2.5 1.4-3.6.6l-17.8-12.9c-.5-.3-.6-.9-.4-1.4.3-.6.7-1.3 1.1-1.9l13.5 9.8z"/><path class="st4" d="M1682 486.6l-13.6-9.8c1.8-2.8 4.3-5.3 7.3-7.7 1.2 1.5 4.8 3.9 5.6 3.7.6-1 1.4-1.9 2-2.4l.5.2c.2.1.4.4.3.6-1.7 4.4-.8 8.9 1.9 13.6-.6.3-1.4.7-2.1 1.6-.4.6-1.3.7-1.9.2z"/><path class="st8" d="M1680.9 473.9c1.3-.1 2.4.2 2.5.2.2 0 .3.2.2.4 0 .2-.2.3-.4.2 0 0-1.1-.3-2.3-.2-.1 0-.1 0-.2-.1-.1 0-.1-.1-.1-.2 0-.2.1-.3.3-.3zM1683.3 476.2c.2 0 .3.2.3.3 0 .2-.2.3-.3.3 0 0-1.1-.2-2.3.1-.1 0-.2 0-.2-.1-.1 0-.1-.1-.1-.2 0-.2.1-.3.2-.3 1.2-.3 2.4-.1 2.4-.1zM1683.5 478.1c.2 0 .3.2.3.3 0 .2-.2.3-.3.3 0 0-1.1-.1-2.3.2h-.2c-.1 0-.1-.1-.1-.2 0-.2.1-.3.2-.4 1.2-.3 2.3-.2 2.4-.2zM1683.9 479.8c.2 0 .3.1.3.3 0 .2-.1.3-.3.3 0 0-1.1 0-2.3.4h-.3l-.1-.1c-.1-.2 0-.3.2-.4 1.3-.4 2.5-.5 2.5-.5zM1684.5 481.6c.2 0 .3.1.3.3 0 .2-.1.3-.3.3 0 0-1.1.1-2.2.6h-.3l-.1-.1c-.1-.1 0-.3.1-.4 1.3-.5 2.5-.7 2.5-.7z"/><path class="st2" d="M1731.1 411.3c-.2 0-2 1.8-2.4 3.2-.5 1.3-.7 2.6-.7 2.6s-2.1-.8-2.1-1.1c0-.4 1.2-4.2 2.9-5 .8-.4 2.3.3 2.3.3"/><path class="st27" d="M1811.1 443c-1.3-3-2.4-5.2-3-6.4-.2-.5-.9-.5-1.2-.1l-1.6 2.1 1.4 4.3 4.4.1zM1782.4 470.9c-.5 2.7-6.7 6-9.5 5.8-.5 0-.8-.4-.9-.9l-.4-2.4c-.1-.5.2-1 .6-1.1 2-.8 7.1-3.2 9.2-6.7l1 5.3zM1806 465.6c2.6 1.1 7.6 5 9.7 8.8.2.4.2.9-.1 1.3l-1.1 1.2c-.4.4-1 .5-1.4.1-1.9-1.5-6.8-5.1-8.3-5.6l1.2-5.8z"/><path class="st28" d="M1801.2 451.8s-.1-10.3.8-13.1c.4-1.2.8-2.1 1.1-2.6.3-.5 1-.5 1.2 0 1 1.7 3.1 5.2 3.3 5.9 0 0 7.7.8 10.5 1.2 2.8.4 3.4 3.9 3.8 7.3s-5.3 4.3-9.6 4.3c-1.3 0-1.6.6-1.6.6l-9.5-3.6z"/><path class="st1" d="M1810.1 447.2c.7.1 1.5-.2 1.5-1 0-1.4-2.6-1.4-2.6 0 .1.6.5.9 1.1 1zM1820.3 445.6c.8.1 1.3-.9 1.3-1.7 0-1.5-3.2-1.5-3.1-.2 0 .6 1.2 1.8 1.8 1.9z"/><path class="st28" d="M1808.8 457.9c0 3.2-1.2 7.9-3 10.6 0 0 1.3 9 1.4 13.1 0 .4-.2.8-.6.9-.7.3-1.8.6-2.8.8-.5.1-.9-.3-1-.8-.5-2.7-2.3-11.4-3.9-12.2l-11.1-1v12.6c0 .4-.2.7-.6.8-.8.2-2.2.5-3.3.4-.4 0-.6-.3-.7-.7-.4-3-2.5-18.9-2.1-24.2 0 0-6.5-3.7-7.4-11.1 0 0 4.8 7 10.3 7.8 0 0 13.8.3 15.7-1l9.1 4z"/><path class="st4" d="M1801.2 450.8l9.3 4.3c.4.2.5.6.3.9l-.9 1.8c-.2.3-.5.5-.9.3l-9.2-3.9c-.3-.1-.5-.5-.4-.9l.9-2.2c.2-.3.6-.4.9-.3z"/><path class="st3" d="M1768.9 191.6c-1.8 25.8 15.8 35.4 35.4 35.4s35.4-9.3 35.4-35.4c0-25.2-15.8-35.4-35.4-35.4-19.6 0-33.8 11.8-35.4 35.4z"/><path class="st3" d="M1769.5 235.9c-.5 7.5 5.2 11.6 11.6 11.6s12.3-5.2 11.6-11.6c-.9-8.2-5.2-11.6-11.6-11.6-6.5 0-11.1 5.2-11.6 11.6z"/><path class="st2" d="M1803.6 251v22h1.2v-68.2h-1.2v44.8l-22.2-14.2-.6 1 22.8 14.6z"/><path class="st1" d="M1810.4 178.7c.3 0 .7-.2.7-.6.3-1.5 1.9-3 4.3-3s4 1.5 4.3 3c.1.4.5.7.9.6.4-.1.7-.5.6-.9-.5-2.1-2.6-4.2-5.8-4.2-3.2 0-5.3 2.1-5.8 4.2-.1.4.2.8.6.9h.2zM1787.9 178.7c.3 0 .7-.2.7-.6.3-1.5 1.9-3 4.3-3s4 1.5 4.3 3c.1.4.5.7.9.6.4-.1.7-.5.6-.9-.5-2.1-2.6-4.2-5.8-4.2-3.2 0-5.3 2.1-5.8 4.2-.1.4.2.8.6.9h.2z"/><ellipse class="st5" cx="1788.3" cy="184.5" rx="3.9" ry="2.1"/><ellipse class="st5" cx="1820.1" cy="184.5" rx="3.9" ry="2.1"/><path class="st1" d="M1797.3 190.4c-.9 0-1.6.8-1.4 1.7.8 3.9 4.2 6.8 8.3 6.8s7.5-2.9 8.3-6.8c.2-.9-.5-1.7-1.4-1.7h-13.8z"/><path class="st5" d="M1799.7 197.5c1.3.8 2.9 1.3 4.5 1.3 1.7 0 3.2-.5 4.5-1.3-.6-1.6-2.4-2.8-4.5-2.8s-3.9 1.2-4.5 2.8z"/><path class="st6" d="M1798.1 129.2h12.3c1.6 0 2.8 1.3 2.8 2.8v7.5c0 1.6-1.3 2.8-2.8 2.8h-3.4c-.2 0-.4.1-.5.3l-2 3.6c-.1.2-.5.2-.6 0l-2-3.6c-.1-.2-.3-.3-.5-.3h-3.4c-1.6 0-2.8-1.3-2.8-2.8V132c.1-1.5 1.3-2.8 2.9-2.8z"/><path class="st2" d="M1800.7 132.8c1.2-.7 2.8-.3 3.5.9.7-1.2 2.3-1.6 3.5-.9s1.6 2.3.9 3.5c-.6 1-3 3.3-4.4 3.5-1.4-.1-3.8-2.4-4.4-3.5-.7-1.2-.3-2.8.9-3.5z"/><path class="st0" d="M1493.4 437.9c6.3-1.1 10.5-2.8 10.5-5.1 0-2.6-9.3-20.7-17.6-34.6 5.4-.9 9.3-2.1 9.3-4 0-3-18.3-36.8-21.3-36.8-3.9 0-22.6 33.6-21.2 38 .4 1.3 3.6 2.3 8 2.8-8.4 14-17.5 32.5-16.2 36.2.6 1.9 5 3.2 11.3 4-8.8 15.6-17.7 33-17.7 35.6 0 5.1 18.2 8.1 35.7 8.1 17.7 0 34.3-2 35.6-6 1.5-4-7-22.3-16.4-38.2z"/><path class="st1" d="M1483.8 418.8l-.9-1-7.8 8v-19.1h-1.3v58.2l-9.2-9.1-1 .9 10.2 10.1v40.6h1.3v-79.9l8.7-8.7zM1474.2 375.3c-1.9-.1-6.4-2.3-14.4-.4.1 2.6 0 1.4.7 2 .8.6.5 4.5 2.1 6 .9.9 3.3 1.1 4.6.9 2.2-.3 3.2-1.1 4.3-2.7 2.1-3 1.1-3.9 2.7-4.2 1.6.3.6 1.2 2.7 4.2 1.1 1.6 2.1 2.4 4.3 2.7 1.4.2 3.7 0 4.6-.9 1.5-1.5 1.3-5.4 2.1-6 .7-.6.5.7.7-2-7.9-1.9-12.5.2-14.4.4zM1474.3 392c-3.3 0-6.4-1.8-8-4.6v-.1c-.1-.2-.1-.6.2-.7.2-.1.6-.1.7.2v.1c1.5 2.5 4.2 4.1 7.2 4.1 2.9 0 5.7-1.6 7.2-4.1.1-.2.5-.3.7-.2.2.1.3.5.2.7-1.8 2.8-4.9 4.6-8.2 4.6z"/><path class="st6" d="M1586.5 73.2h-12.3c-1.6 0-2.8 1.3-2.8 2.8v7.5c0 1.6 1.3 2.8 2.8 2.8h3.4c.2 0 .4.1.5.3l2 3.6c.1.2.5.2.6 0l2-3.6c.1-.2.3-.3.5-.3h3.4c1.6 0 2.8-1.3 2.8-2.8V76c0-1.5-1.3-2.8-2.9-2.8z"/><path class="st2" d="M1583.9 76.8c-1.2-.7-2.8-.3-3.5.9-.7-1.2-2.3-1.6-3.5-.9s-1.6 2.3-.9 3.5c.6 1 3 3.3 4.4 3.5 1.4-.1 3.8-2.4 4.4-3.5.7-1.2.3-2.8-.9-3.5z"/><path class="st0" d="M1282.9 201.1c20.5 0 37 10.6 37 37 0 27.3-16.5 37-37 37s-38.9-10.1-37-37c1.6-24.6 16.5-37 37-37zM1258.6 272.5c6.7 0 11.2 3.5 12.2 12.2.7 6.7-5.5 12.2-12.2 12.2s-12.6-4.3-12.2-12.2c.6-6.7 5.4-12.2 12.2-12.2z"/><path class="st1" d="M1258.2 285.1l.7-1.1 23.3 15v-40.9h1.3v65.6h-1.3v-23.1l-24-15.5zM1275.5 229c-.4 0-.8-.3-.9-.7-.4-1.7-2.3-3.5-5.1-3.5s-4.7 1.8-5.1 3.5c-.1.5-.6.8-1.1.7s-.8-.6-.7-1.1c.5-2.4 3-4.9 6.8-4.9s6.3 2.5 6.8 4.9c.1.5-.2.9-.7 1.1.1 0 .1 0 0 0zM1302 229c-.4 0-.8-.3-.9-.7-.4-1.7-2.3-3.5-5.1-3.5s-4.7 1.8-5.1 3.5c-.1.5-.6.8-1.1.7s-.8-.6-.7-1.1c.5-2.4 3-4.9 6.8-4.9s6.3 2.5 6.8 4.9c.1.5-.2.9-.7 1.1.1 0 0 0 0 0zM1282.8 248.6c-4.7 0-7.8-3.1-8.5-6.1-.1-.5.2-.9.7-1.1.5-.1.9.2 1.1.7.5 2.3 3 4.7 6.8 4.7s6.2-2.4 6.8-4.7c.1-.5.6-.8 1.1-.7s.8.6.7 1.1c-.9 3-4 6.1-8.7 6.1z"/><ellipse class="st5" cx="1301.5" cy="235.8" rx="4.6" ry="2.5"/><ellipse class="st5" cx="1264.1" cy="235.8" rx="4.6" ry="2.5"/><path class="st6" d="M1314.4 366.8h-12.3c-1.6 0-2.8 1.3-2.8 2.8v7.5c0 1.6 1.3 2.8 2.8 2.8h3.4c.2 0 .4.1.5.3l2 3.6c.1.2.5.2.6 0l2-3.6c.1-.2.3-.3.5-.3h3.4c1.6 0 2.8-1.3 2.8-2.8v-7.5c-.1-1.5-1.3-2.8-2.9-2.8z"/><path class="st2" d="M1311.8 370.4c-1.2-.7-2.8-.3-3.5.9-.7-1.2-2.3-1.6-3.5-.9s-1.6 2.3-.9 3.5c.6 1 3 3.3 4.4 3.5 1.4-.1 3.8-2.4 4.4-3.5.7-1.3.3-2.8-.9-3.5z"/><path class="st6" d="M106.6 376.1H94.3c-1.6 0-2.8 1.3-2.8 2.8v7.5c0 1.6 1.3 2.8 2.8 2.8h3.4c.2 0 .4.1.5.3l2 3.6c.1.2.5.2.6 0l2-3.6c.1-.2.3-.3.5-.3h3.4c1.6 0 2.8-1.3 2.8-2.8v-7.5c-.1-1.6-1.3-2.8-2.9-2.8z"/><path class="st2" d="M104 379.6c-1.2-.7-2.8-.3-3.5.9-.7-1.2-2.3-1.6-3.5-.9s-1.6 2.3-.9 3.5c.6 1 3 3.3 4.4 3.5 1.4-.1 3.8-2.4 4.4-3.5.7-1.2.3-2.8-.9-3.5z"/><path class="st29" d="M1459.9 290.1c-1 1.3-.9 2.6-2.5 2.2s-3.7.3-5.1-.3c-1.4-.6-1.6-1.5.1-2.1 1.7-.7 4.7-1.1 5.6-2.1.9-1.1 2.9 1 1.9 2.3z"/><path class="st30" d="M1483.2 282.1c-.8.5-2.9-.8-6.7-2.2-3.4-1.2-4.2-2.2-7.4-.4-2.9 1.7-9.4 5.8-10.8 6.8-1.4 1.1-1.1 1.7.8 3.3 1.8 1.5 3.5 0 3.5 0l19.2-2.7 5.6-1.6v-3.9c-.2 0-2.9-.1-4.2.7z"/><path class="st4" d="M1462.8 292.5c-.9 1.4-.8 2.7-2.4 2.4-1.6-.3-3.7.5-5.1 0-1.5-.5-1.7-1.4 0-2.2 1.7-.8 4.7-1.4 5.5-2.5.8-1 3 .9 2 2.3z"/><path class="st3" d="M1494.6 286.7c-.3 2.5-1.3 6.1-8.5 5.4s-8.5-4.7-13.2-2.9c-4.7 1.8-7.2 3-8.5 3.7s-1.2.5-3.1-1.4c-1.5-1.5-1-1.7.3-2.6s8.6-5.6 10.7-6.3c2-.7 2.8-.6 5 0s5.2 1.8 6 2.1c.8.3 1 .3 1.9-1.2.9-1.6 9.8.8 9.4 3.2z"/><path class="st29" d="M1472.6 249.6c-2.4-1.6-2.6-.4-1.8 2 .4.3 1 .7 2 1.8 2.7 2.8 12.9 11.4 13.5 12.3.5.7-.2 1.5-1.5 6.2-1.5 5.2-2.1 7.8-2.4 8.7-.4 1.3-.8 1.7 1.4 2.8 2.2 1.2 8 2.9 9.7 3.2 1.7.3 1.5.4 1.8-1 .4-1.4 2.9-9.2 3.4-10.8.4-1.5 2.9-5.3 1.2-7.3-2-2.5-5.3-3.1-6.5-3.4s-3.7-1.3-6.4-3.5c-2.7-2.3-12.6-9.4-14-10.5 0-.1-.2-.3-.4-.5z"/><path class="st10" d="M1502.8 249s.1-3.4-3.3-4.2-4.8 1.7-4.8 1.7-2.4-1.1-4 .5c-1.6 1.7-.7 2.8-.7 2.8s-3.5 3.3-.5 5.7 6.9 3.5 8.1 4.8 2.6 1.9 4.3.4 3.3-1.3 3.8-3.7c.5-2.4.2-7.9-2.9-8z"/><path class="st31" d="M1491.8 261c-.3.9-.6 1.8-.7 2.2-.1.4 0 1.2 1.5 1.8.9.4 2.2.4 2.7.1.3-.2.3-.3.4-.9.1-.9.2-3.3.2-3.3s-3.8-.7-4.1.1z"/><path class="st32" d="M1497.1 249c-2.9-1-6.4 1.1-7.7 4.8-1.3 3.7.1 7.5 3 8.5s6.4-1.1 7.7-4.8c1.3-3.6 0-7.4-3-8.5z"/><path class="st10" d="M1501 258.7s-3.9-2.2-2-5.8c0 0-3.5.8-4.3-1.9 0 0-2.9 2.2-4.3-.4l1.2-2.2 1.1-.6 4.4-1.3 4.8 3.4 1.3 4.2-2.2 4.6z"/><path class="st4" d="M1503.2 279.9c-.7-3-1.1-14-5.3-12.9-1.3.3-1.8 1.7-1.4 4.8.6 5.2 3.1 13.4 3.6 15.7.6 3.5 3.8-4.6 3.1-7.6z"/><path class="st32" d="M1472.6 249.6c-1.2-1.2-2.5-3-3-3.7-.6-.8-2.4-1.8-.1 1.8 0 0-.8-.1-.5.7 0 0-.6-.1-.4.7 0 0-.9.1.6 1.5.9.8 1 .6 1.6 1.1.7-.8 1.3-1.5 1.8-2.1z"/><path class="st3" d="M1515.9 232.7s-6.7-1.7-8.6 4.8.8 8.4-2.4 12.8c-3.3 4.4-2.6 10.3 7.1 13.2 9.6 2.9 30.8 10 35.3 4s-5.8-6-1.6-8.9c4.2-2.9 19.1 3.4 20.9-4.7 1.9-8.1-11.1-12.3-20.9-11.9-9.8.4-14.4-3.4-16.9-6.8-2.9-3.8-7.4-6.8-12.9-2.5z"/><path class="st29" d="M1457.7 313.7c1.5-1.5-1.1-4.5-2.5-2.5s-3.5 4.8-5.3 6.1c-1.8 1.4-4.6 3-4.4 4.4.2 1.3 2.8 1.5 4.9 0 3.2-2.3 4.7-1.1 5.4-3.1.5-1.3-1.2-1.7 1.9-4.9z"/><path class="st23" d="M1520.5 275.9c.6 3.4 3.5 14.9 4.1 17s.6 1.5 3.2 1.7c2.6.3 3 1.1 1.3 1.7-.6.2-1.5.1-2.4.2-1.6.3-3.3.6-3.8-.7-.9-2.1-7-15.1-7-15.1s4-8.2 4.6-4.8z"/><path class="st0" d="M1494.1 290.9c-1.3 0-6.2-1-11.1-1.8-3.9-.6-7.6-1.3-10.3 0-5 2.5-16 19.4-17.3 21.1s-1 1.3.6 2.9c1.7 1.8 1.2 2 4.4-1.1 2.2-2.1 7.8-6.8 7.8-6.8l9.2-6.7 23.1-2.8 2.3-4.9s-3.3-3.8-4.6-1.8c-1.3 2.1-1.3 1.9-4.1 1.9z"/><path class="st4" d="M1462.3 318.5c1.5-1.5-1.1-4.5-2.5-2.5s-3.5 4.8-5.3 6.1c-1.8 1.4-4.6 3-4.4 4.4.2 1.3 2.8 1.5 4.9 0 3.2-2.3 4.7-1.1 5.4-3.1.5-1.3-1.2-1.7 1.9-4.9z"/><path class="st33" d="M1500.5 291.7c0 .3-.4.7-1.1 1.7-1.3 1.7-1.5 1.6-2.4 1.5-1.4-.1-5.1-.6-13.5-1.5s-9.1-.2-10.7 1.8c-1.5 2-12.2 18.2-13.3 19.9-1.1 1.7-.5 1.9 1.2 3.1 1.6 1.2 1.3 1.2 2.8 0 3.8-3.1 6.2-4.5 12-12.7 2-2.8 4.9-2.1 9.5-.9 4.5 1.2 15.7 5.1 24.7 4.3 6.6-.6 6.9-7.7 6.4-13-1.6-.9-3.8-5.6-4.3-7.3-2.5-8.2-7.9.8-11.3 3.1z"/><path class="st23" d="M1532.6 274.5c-3 .1-5.4 1.4-5.9 4.3 5 7.1 15.6 21.8 16.6 22.9 1.3 1.4 3.2.5 5.6 1.4s3.9-.2 3-1.4c-.9-1.2-3.6-1.1-5-1s-1.5.5-3.3-2.7c-1.2-2.2-6.7-14.4-11-23.5zM1521.1 259.7l-1.8-.2c-1.1-.2-1.2-1.6-.9-3.4-1.1-1.6-2.8-2.5-4.9-.3-.2.6-.3 1.1-.6 1.6-.3.6-1.4.7-2.5.7-.1.8 0 1.6.4 2.5 1.4 2.8 6.4 1.7 10.3-.9z"/><path class="st24" d="M1500.5 291.7c2.5 1.2 5.8 2.3 10.3 2.5 1.8.1 3.6.8 5.2 1.7-.2-2.1-.5-3.9-.5-4.8-.2-3.5 4.5-12.7 6.2-15.9 1.2-2.3 1-2.2 2.5 0l2.6 3.6c1.6-.7 4-2.1 5.9-4.3-1.8-3.8-3.3-7.1-4.3-8.9-2.5-4.7-5.1-5.6-7.2-5.9-3.9 2.7-8.9 3.7-10.3.9-.4-.9-.5-1.7-.4-2.5-1.1 0-2.3.1-3.1.6-2.4 1.7-1.5 4-3.6 6.2-3.6 3.6-1 9.4-1.3 13-.2 2-1.4 5.9-3.2 9-.7 1.3-1.1 2-1.1 2.6 0 .4 1.2 1.6 1.8 1.9l.5.3z"/><path class="st34" d="M1516.6 250.3c-1.2.4-2.4 1.1-2.4 1.1s-.1 2.3-.7 4.4c1.9.8 3.7.7 4.9.3.2-1.3.6-2.9.8-4.3-.6-.8-1.6-1.3-2.6-1.5z"/><path class="st23" d="M1520.9 234.2c-3.6-1.1-8 2.5-9.7 8.1s-.2 11.1 3.5 12.2c3.6 1.1 8-2.5 9.7-8.1 1.7-5.7.1-11.1-3.5-12.2z"/><path class="st3" d="M1526.1 243.4s-7.5 0-9.7-5.6c0 0-2.1 4.1-5.6 3.1-3.4-1 2.8-6.9 2.8-6.9l7.6-1.5 6.6 6.1-1.7 4.8zM1559.1 310.7c-.3-3.2-2.5-6.3-6.2-5.2-3.7 1.2-3.5 6.8-3.5 6.8s-3.1 2.2-3.5 6.3c-.4 3.9 1.2 8.9 10.5 10.2 0 0 5.4 1.2 10.2-2.2 4.8-3.4 8.9-11.1 4.5-15.4-2.7-2.8-8.4-4.2-12-.5z"/><path class="st2" d="M1567.9 317c-.2-.2-.5-.2-.7 0 0 0-1.2 1-2.8 2.3-.7-1.8-.6-3.5.2-5.2.1-.2 0-.5-.2-.7-.2-.1-.5 0-.7.2-.9 2-1 4-.1 6.2-1 .8-2.1 1.6-3.1 2.2-1.5 1-2.2 2.4-2.6 3.8-.4-.9-.9-1.9-1.6-2.8.6-5.9 0-10.3-1.6-13.2-.1-.2-.4-.3-.7-.2-.2.1-.3.4-.2.7 1.4 2.6 1.9 6.5 1.5 11.7-1.5-1.5-3.2-2.5-4.1-3-.2-.1-.3-.2-.4-.2-.2-.2-.5-.1-.7.1s-.1.5.1.7c.1.1.2.1.5.3.8.5 2.5 1.4 3.9 2.9 1.9 2 2.7 4.8 2.9 5.2v11h1v-10s-.3-4.2 2.5-6c3.1-2 6.8-5.2 6.8-5.2.3-.3.3-.6.1-.8z"/><path class="st17" d="M1547.1 343c4.4-.2 5.4 2.2 5.4 2.2s1-8.6 9.5-8.2 14.7 5.8 16.7 12.5c-4.1-.1-38.2 0-38.2 0s2.1-6.3 6.6-6.5z"/><path class="st9" d="M1568.6 332.6v-.2l-.4-.2s-.1.1-.1.4l-.2-.1v-.1l-.6-.1s-.9 1.2-1 2.1c0 .6-.1 1 0 1.4s.4.6.3.1.1-.8.1-.8.4 1.5.8 1.7c.5.2-.3-.7-.2-1.5.1.2.1.4.2.7.1.5.4 1 .7 1 .3 0 0-.3-.2-.8s-.3-1 0-.6c.3.3.5.6.5.3s-.5-.7-.6-1.1c0-.1-.1-.4-.2-.6l.8-.4v.7s-.1.5.1.6.5-.1.6-.6.2-1.5.2-1.5l-.8-.4z"/><path class="st24" d="M1566.4 331.5l.6-3.4.6-3.4c.2-1.1.4-2.3.6-3.4l.5-3.4v-.1l.1-.2.6-2c.2-.7.4-1.3.6-2 .4-1.3.8-2.7 1.1-4 0-.2.1-.3.2-.5.7-1.6 2.6-2.3 4.2-1.6 1.6.7 2.3 2.6 1.6 4.2-.6 1.3-1.1 2.6-1.6 3.8-.3.6-.5 1.3-.8 1.9l-.8 1.9-.8 3c-.3 1.1-.6 2.2-.8 3.3l-.8 3.3-.8 3.3c-.3 1.1-1.3.6-2.4.4-1.2 0-2.1.1-1.9-1.1z"/><path class="st8" d="M1583.6 299.2s4.8 2.9 8.8 5.3c4 2.3 9.4 10.3 9.2 11.7-.2 1.4-8.1-.4-11.6 1s-7.6 3.3-11.4.9-4.6-9.3-4.6-9.3l4.8-8 4.8-1.6z"/><path class="st9" d="M1565.9 304.7s4.1 4.3 7.1 4.6c3.1.3 5-5.2 5.6-6.8.6-1.6-.6-4.8-2.4-5.6-1.8-.7-8.9-4-9.7-1.8-.8 2.2-.6 9.6-.6 9.6z"/><path class="st0" d="M1596.3 286.7c-8.7 1-14.7-1.4-23.4.7-4.6 1.1-6.8 2.8-7.9 4.1-.4.2-.8.5-1.1.8-3.1 2.9-3.3 11 0 12.5s1.7-1.6 3.3-1.1c1.6.5 2.7 1.1 4.8.1 2.1-1 2.8-2.9 2.8-2.9s.5-1.4 1.8-1.2c1.3.2 1.6 2.4 1.9 2.8 0 0 .3-.3 2.8-1.7 2.2-1.2 6.3 1 8.9 1.7 6.9 2 16-2.6 16.6-6.6s-4.7-9.8-10.5-9.2z"/><path class="st35" d="M1577.6 312.1l.6.1 1.9.2 1.9.1c1.3.1 2.6.1 3.9.2 1.3 0 2.6.1 3.9.1h4c.3 0 .7 0 1.1.1 2.8.6 4.6 3.4 3.9 6.2-.6 2.8-3.4 4.6-6.2 3.9l-1.9-.4-1.9-.4c-1.3-.3-2.6-.5-3.9-.7-.2 0-.4-.1-.6-.1l2.5 6c.5 1.1.1 2.5-.9 3.2-1.2.8-2.9.5-3.7-.7l-.1-.1-8.2-11.7c-.5-.7-.8-1.6-.7-2.6.3-2 2.2-3.6 4.4-3.4z"/><path class="st4" d="M1582 312.1c.8-2 3-3.1 5.1-2.3l.9.3 10.8 4c.4.2.9.4 1.3.7 2.6 1.8 3.2 5.4 1.4 7.9-1.8 2.6-5.4 3.2-7.9 1.4l-1.1-.8 1 4.5c.3 1.2-.3 2.5-1.5 3-1.3.6-2.9 0-3.5-1.4l-6.3-14.4c-.6-.8-.6-1.9-.2-2.9z"/><path class="st24" d="M1586.6 326.6s-1.9 2-3.3 2.2-2 0-2 0 1.1 2 1.4 3.4-2.5 2-3.5 2.7 0 1.5 2.8 1.4 7-1.5 7.4-2-.4-3-.9-3.9c-.4-.7-1.9-3.8-1.9-3.8z"/><path class="st24" d="M1593.5 327.1s-1.8 1.2-3.5 1.4c-1.8.2-2.2-.2-2.2-.2s1.1 2.2.8 3.6c-.3 1.4-2.8 1.4-3.6 2.5-.9 1.1 3.6 1.6 7 1 3.3-.6 3.3-1.7 2.7-3.3-.8-1.5-1.2-5-1.2-5z"/><path class="st36" d="M1576 322.9s-1.2.7-1.4.8c-.4.1-.9.5-1.3.8s-.7.7-.9.8c-.2.1-.1.2 0 .2h.2s-.3.4-.4.6c-.1.1-.1.8 0 .9s.3.1.3 0c.1-.1.1-.2.1-.2l.1-.2s-.1.5 0 .6.3.2.4.1.2-.3.2-.3-.1.4.1.5c.3.1.3-.2.3-.2l.2-.3.2-.2s-.2.3-.3.5c-.1.1.1.3.3.3.1 0 .4-.3.7-.6.2-.3.7-.7.9-.9.3-.2.6-1.1.8-1.4.3-.3 1-.7 1-.7l-1.5-1.1z"/><path class="st24" d="M1574.7 321.9l6.7-7.9-.4-10.8v-.3c.1-1.7 1.6-3.1 3.3-3 1.7.1 3.1 1.6 3 3.3l-.6 11.7v.2c0 .6-.3 1.1-.7 1.6l-8.2 8.1c-.8.8-1.3-.1-2.1-.9-.9-.7-1.8-1.1-1-2z"/><style xmlns="" class="darkreader darkreader--fallback">html, body, body :not(iframe) {
    background-color: #181a1b !important;
    border-color: #776e62 !important;
    color: #e8e6e3 !important;
}</style></svg>