<svg xmlns="http://www.w3.org/2000/svg" id="Layer_1" viewBox="0 0 95 69.6"><style>.st0{fill:#bfbfbf}.st1{fill:#d4d4d4}.st2{fill:#FFF}</style><path class="st0" d="M88.4 16.4H75.3v3.3H62.2v3.2H19.7v-3.2h-6.6v6.5h3.3v3.3H68.8v-3.3h6.5v-3.3H88.4v-3.2h3.3v-3.3z"/><path class="st1" d="M91.7 9.8h-3.3v3.3H65.5v3.3H59v3.3H39.3v-3.3H6.6v-3.3H0v3.3h3.3v3.3h3.3v3.2h6.5v-3.2h6.6v3.2h42.5v-3.2H75.3v-3.3H95V9.8z"/><path class="st2" d="M91.7 6.6H78.6V3.3H55.7V0H19.7v3.3h-6.6v3.3H3.3v3.2H0v3.3h6.6v3.3h32.7v3.3H59v-3.3h6.5v-3.3H88.4V9.8H95V6.6z"/><path class="st1" d="M81.9 63h-9.8v3.3h-6.6V63H59v-3.3h-3.3V63h-3.3v3.3H59v3.3H75.4v-3.3h9.8V63z"/><path class="st2" d="M81.9 59.7v-3.2h-9.8v-3.3H59v3.3h-6.6v3.2h-3.3V63h6.6v-3.3H59V63h6.5v3.3h6.6V63H85.2v-3.3z"/></svg>