<svg id="Layer_1" data-name="Layer 1" xmlns="http://www.w3.org/2000/svg" viewBox="0 0 3533 528">
  <title>headerSvg</title>
  <rect width="3533" height="2000" style="fill: #fff"/>
  <g>
    <path d="M1197.28,381.41c5.08-20.49,24.87-35.77,48.53-35.77a53.54,53.54,0,0,1,12.57,1.49c11.68-23.14,37-39.16,66.41-39.16A78.56,78.56,0,0,1,1346.6,311c15.82-24.27,44.56-40.5,77.4-40.5,39.06,0,72.34,23,84.94,55.12a65.58,65.58,0,0,1,30.14-7.24c34.25,0,62,25.71,62,57.43a53.94,53.94,0,0,1-.3,5.57Z" style="fill: #fff;opacity: 0.8"/>
    <path d="M-735.28-1231.15C-831.91-1084.44-728-169.66-558.88-83.54-373.12,11.07-234.26-165.12-86-35.87-21.4,20.5-66.77,168.89,63.81,211.63c183.41,60,625.57-212.31,562-22.18s426.93,299.24,888.68,255.36S1879.85,150.75,1871.67,110s-84.43-236.16,175.48-338.13,194.28-223.6,165.41-293.6c-25.14-61-155.78-128.94,23.48-296.76,149.24-139.73,94.74-469.24,47-535.3Z" style="fill: #eafcfc"/>
    <path d="M768-1.07C1153.61-43.4,1711.82,246,2041.84,221.49c348-25.82,576.37-640.52,576.37-640.52L766.68-7Z" style="fill: #abe1ef"/>
  </g>
</svg>
