<svg xmlns="http://www.w3.org/2000/svg" id="Layer_1" viewBox="0 0 50 61.1"><style>.st0{fill:#89b636}.st1{fill:#f5f8e7}.st2{fill:#fafafa}.st3{fill:#518360}.st4{fill:#273654}</style><path class="st0" d="M33.3 36.4s7.9 8.3-4.7 22.7c0 0-3.1-6.6-4.6-13l9.3-9.7zM18.6 27S7.7 23.4 0 40.8c0 0 7.3 0 13.7-1.4L18.6 27z"/><path class="st1" d="M15.6 47.9L11 45C14.4 13.2 42.7 1.3 46.1 0c.2 3.7 1.5 34.3-25.9 50.9l-4.6-3z"/><path class="st0" d="M18.3 23.3c1.5-2.4 3.1-4.7 4.8-6.7l17.6 11.2c-1.1 2.4-2.4 4.8-4 7.2L18.3 23.3z"/><path class="st2" d="M10.8 44.3l10.1 6.4-5.2 10.4-12.1-7.7z"/><path class="st3" d="M16.8 58.9l-1.1 2.2-12.1-7.7 1.5-1.9zM10.8 44.3l10.1 6.4-1.3 2.5-10.5-6.7z"/><path class="st4" d="M33.5 18.3c2 1.2 4.7.5 6.1-1.7 1.4-2.2 1-5-1-6.3-2-1.2-4.7-.5-6.1 1.7-1.4 2.3-.9 5.1 1 6.3z"/><path class="st0" d="M49 25.7c3-10.7-1.6-14.5-3.3-15.5-.4 3-1 6.5-2.1 10.3 2.6 2.8 5.4 5.2 5.4 5.2zM21.6 8.2s3.3 1.6 7.1 2.7c2.9-2.6 5.8-4.7 8.4-6.3-1.6-1-7.1-3.6-15.5 3.6z"/></svg>